<svg version="1.1" id="Слой_1" xmlns="http://www.w3.org/2000/svg" xmlns:xlink="http://www.w3.org/1999/xlink" x="0px" y="0px" viewBox="0 0 100 100" style="enable-background:new 0 0 100 100;" xml:space="preserve">
<style type="text/css">
	.st0{fill:#84B236;}
</style>
<g>
	<path class="st0" d="M50,5C25.3,5,5.2,25.1,5,49.7c-0.1,12,4.5,23.4,13,31.9c8.4,8.6,19.7,13.3,31.7,13.4H50   c24.7,0,44.8-20.1,45-44.7C95.2,25.5,75.1,5.2,50,5z M50,88.9h-0.3c-10.4-0.1-20.1-4.2-27.5-11.6C15,70,11,60.2,11.1,49.8   c0.1-21.3,17.6-38.7,39.2-38.7C71.8,11.2,89.1,28.8,89,50.3C88.8,71.6,71.3,88.9,50,88.9z"/>
	<path class="st0" d="M71.2,48.8H52.5V22.9c0-1.6-1.3-2.9-2.9-2.9c-1.6,0-2.9,1.3-2.9,2.9v28.8c0,1.6,1.3,2.9,2.9,2.9h21.6   c1.6,0,2.9-1.3,2.9-2.9S72.8,48.8,71.2,48.8z"/>
</g>
</svg>