<?xml version="1.0" encoding="utf-8"?>
<!-- Generator: Adobe Illustrator 24.0.2, SVG Export Plug-In . SVG Version: 6.00 Build 0)  -->
<svg version="1.1" id="Слой_1" xmlns="http://www.w3.org/2000/svg" xmlns:xlink="http://www.w3.org/1999/xlink" x="0px" y="0px"
	 viewBox="0 0 30.6 30.6" style="enable-background:new 0 0 30.6 30.6;" xml:space="preserve" width="33px" height="33px">
<style type="text/css">
	.st0{fill:#30C1C3;}
	.st1{fill:#FFFFFF;stroke:#FFFFFF;stroke-width:0.2483;stroke-miterlimit:2.4828;}
	.st2{fill:#E4CC37;stroke:#E4CC37;stroke-width:0.2483;stroke-miterlimit:2.4828;}
	.st3{fill:#FFFFFF;stroke:#FFFFFF;stroke-width:0.2276;stroke-miterlimit:2.2756;}
	.st4{fill:#E18335;stroke:#E18335;stroke-width:0.2276;stroke-miterlimit:2.2756;}
	.st5{fill:#FFFFFF;stroke:#FFFFFF;stroke-width:0.6;stroke-miterlimit:1.5;}
	.st6{fill:#84B236;stroke:#84B236;stroke-width:0.6;stroke-miterlimit:1.5;}
	.st7{fill:#8963BA;}
	.st8{fill:#1E91D6;}
	.st9{fill:#C3423F;}
	.st10{fill:#FFFFFF;}
</style>
<g>
	<circle class="st0" cx="-174.2" cy="15.8" r="14.5"/>
	<path class="st0" d="M-174.2,1.8c7.7,0,14,6.3,14,14s-6.3,14-14,14s-14-6.3-14-14S-181.9,1.8-174.2,1.8 M-174.2,0.8
		c-8.3,0-15,6.7-15,15s6.7,15,15,15s15-6.7,15-15S-165.9,0.8-174.2,0.8L-174.2,0.8z"/>
</g>
<path class="st1" d="M-165.8,11.1h-0.9V9.7c0-0.3-0.2-0.5-0.5-0.5c-2.9,0-5.4,0.5-6.9,1.3c-1.5-0.8-4.1-1.3-6.9-1.3
	c-0.3,0-0.5,0.2-0.5,0.5v1.5h-0.9c-0.3,0-0.5,0.2-0.5,0.5v9.5c0,0.3,0.2,0.5,0.5,0.5h16.6c0.3,0,0.5-0.2,0.5-0.5v-9.5
	C-165.3,11.3-165.5,11.1-165.8,11.1z M-167.6,19.2c-2.4,0-4.5,0.4-5.9,1v-9c1.2-0.7,3.5-1.1,5.9-1.1V19.2z M-180.5,10.2
	c2.5,0,4.7,0.5,5.9,1.1v9c-1.4-0.6-3.6-1-5.9-1L-180.5,10.2z M-181.9,12.1h0.4v7.6c0,0.3,0.2,0.5,0.5,0.5c1.4,0,2.8,0.1,4,0.4h-4.9
	V12.1z M-166.2,20.6h-4.9c1.2-0.2,2.6-0.4,4-0.4c0.3,0,0.5-0.2,0.5-0.5v-7.6h0.4C-166.2,12.1-166.2,20.6-166.2,20.6z"/>
<circle class="st2" cx="-117.2" cy="15.8" r="15"/>
<path class="st3" d="M-115.3,18.7l-0.3,0.1c-0.2-0.7-0.9-1.2-1.7-1.2s-1.5,0.5-1.7,1.2l-0.3-0.1c-0.3,0-0.5,0.1-0.5,0.3
	c0,0.3,0.1,0.5,0.3,0.5l0.5,0.1c0.2,0.8,0.9,1.4,1.8,1.4c0.9,0,1.6-0.6,1.8-1.4l0.5-0.1c0.3,0,0.4-0.3,0.3-0.5S-115,18.7-115.3,18.7
	z M-117.3,20.2c-0.5,0-0.9-0.4-0.9-0.9c0-0.5,0.4-0.9,0.9-0.9s0.9,0.4,0.9,0.9C-116.4,19.8-116.8,20.2-117.3,20.2z M-119.1,15.7
	c0.1,0.1,0.2,0.2,0.4,0.2c0.1,0,0.2,0,0.3-0.1c0.2-0.1,0.3-0.4,0.1-0.6c-0.4-0.7-1.1-1-1.9-1s-1.5,0.4-1.9,1
	c-0.1,0.2-0.1,0.5,0.1,0.6s0.5,0.1,0.6-0.1c0.3-0.4,0.7-0.6,1.1-0.6C-119.7,15.1-119.3,15.4-119.1,15.7z M-114.4,14.2
	c-0.8,0-1.5,0.4-1.9,1c-0.1,0.2-0.1,0.5,0.1,0.6s0.5,0.1,0.6-0.1c0.3-0.4,0.7-0.6,1.1-0.6c0.5,0,0.9,0.2,1.1,0.6
	c0.1,0.1,0.2,0.2,0.4,0.2c0.1,0,0.2,0,0.3-0.1c0.2-0.1,0.3-0.4,0.1-0.6C-112.9,14.6-113.6,14.2-114.4,14.2z M-110.2,14.4
	c-0.6-2.1-2.1-3.9-4.1-4.8c-0.2-1.3-1.4-2.4-2.8-2.4c-1.3,0-2.5,0.9-2.7,2.2c-2.3,0.8-4,2.7-4.6,5c-1,0.1-1.8,0.9-1.8,2
	c0,1,0.8,1.9,1.8,2c0.9,3.1,3.7,5.4,7.1,5.4c3.4,0,6.3-2.3,7.1-5.4c1-0.1,1.8-0.9,1.8-2C-108.4,15.4-109.2,14.5-110.2,14.4z
	 M-124.6,17.4c-0.4-0.2-0.7-0.5-0.7-1s0.3-0.8,0.7-1c0,0.3-0.1,0.6-0.1,1C-124.7,16.7-124.6,17-124.6,17.4z M-117.3,22.9
	c-3.6,0-6.5-2.9-6.5-6.5c0-2.8,1.8-5.3,4.5-6.2c0.2,0,0.3-0.2,0.3-0.4c0.1-1,0.9-1.7,1.9-1.7c1,0,1.8,0.8,1.9,1.8v0c0,0,0,0,0,0
	c0,0.8-0.6,1.4-1.4,1.4c-0.5,0-0.9-0.3-0.9-0.7s0.3-0.7,0.7-0.7c0.3,0,0.5-0.2,0.5-0.5c0-0.3-0.2-0.5-0.5-0.5
	c-0.9,0-1.6,0.7-1.6,1.6c0,0.9,0.8,1.6,1.8,1.6c1,0,1.9-0.7,2.2-1.7c2.2,1,3.5,3.3,3.5,5.7C-110.8,19.9-113.7,22.9-117.3,22.9z
	 M-110,17.4c0-0.3,0.1-0.6,0.1-1c0-0.3,0-0.7-0.1-1c0.4,0.2,0.7,0.5,0.7,1S-109.6,17.2-110,17.4z"/>
<circle class="st4" cx="-54.2" cy="15.8" r="15"/>
<g>
	<path class="st5" d="M-54.3,14.7c-0.1,0-0.2,0.1-0.2,0.2v0.3c0,0.8-0.7,1.5-1.5,1.5s-1.5-0.7-1.5-1.5V15c0-0.1-0.1-0.2-0.2-0.2
		c-0.1,0-0.2,0.1-0.2,0.2v0.3c0,1.1,0.9,2,2,2c1.1,0,2-0.9,2-2v-0.3C-54.1,14.8-54.2,14.7-54.3,14.7z"/>
	<path class="st5" d="M-48.6,10.4c0-0.1-0.1-0.2-0.2-0.2h-2.3v-0.1c0-0.5-0.2-1-0.6-1.4c-0.4-0.4-0.9-0.6-1.4-0.6c-1.1,0-2,0.9-2,2
		v0.1h-2.3c-0.1,0-0.2,0.1-0.2,0.2l-0.2,2.4h-2.6c-0.1,0-0.2,0-0.2,0.1c0,0,0,0,0,0.1l-0.8,8.4c0,0.1,0,0.1,0.1,0.2
		c0,0,0.1,0.1,0.2,0.1h10c0.1,0,0.1,0,0.2-0.1c0,0,0.1-0.1,0.1-0.2L-51,19h3c0.1,0,0.1,0,0.2-0.1s0-0.1,0-0.2L-48.6,10.4z
		 M-54.6,10.1c0-0.8,0.7-1.5,1.5-1.5c0.4,0,0.8,0.1,1.1,0.4c0.3,0.3,0.5,0.7,0.5,1.1v0.1h-3V10.1z M-60.9,21.2l0.7-7.9h8.1l0.7,7.9
		H-60.9z M-51.1,18.6l-0.5-5.6c0-0.1-0.1-0.2-0.2-0.2h-5.5l0.2-2.2h2.1v0.6c0,0.1,0.1,0.2,0.2,0.2s0.2-0.1,0.2-0.2v-0.6h3v0.6
		c0,0.1,0.1,0.2,0.2,0.2c0.1,0,0.2-0.1,0.2-0.2v-0.6h2.1l0.7,7.9H-51.1z"/>
</g>
<circle class="st6" cx="15.3" cy="15.3" r="15"/>
<circle class="st7" cx="84.8" cy="14.8" r="15"/>
<circle class="st8" cx="163.8" cy="14.8" r="15"/>
<circle class="st9" cx="247.8" cy="14.8" r="15"/>
<g>
	<g>
		<path class="st10" d="M89.3,16.1l3-2.6c0.3-0.3,0.4-0.7,0.3-1.2c-0.1-0.4-0.5-0.7-0.9-0.7l-3.9-0.3l-1.5-3.7
			c-0.2-0.4-0.6-0.7-1-0.7l0,0c-0.4,0-0.8,0.3-1,0.7l-1.5,3.7l-3.9,0.3c-0.4,0-0.8,0.3-0.9,0.7c-0.1,0.4,0,0.9,0.3,1.2l3,2.6
			l-0.9,3.8c-0.1,0.4,0.1,0.9,0.4,1.1c0.4,0.3,0.8,0.3,1.2,0.1l3.4-2.1l3.4,2.1c0.2,0.1,0.4,0.1,0.6,0.1c0.2,0,0.4-0.1,0.6-0.2
			c0.4-0.3,0.5-0.7,0.4-1.1L89.3,16.1z M88.5,15.2L88.5,15.2c-0.3,0.3-0.4,0.7-0.4,1.1l0.9,3.7l-3.2-2c-0.2-0.1-0.4-0.1-0.6-0.1
			s-0.4,0.1-0.6,0.1l-3.2,2l0.9-3.7c0.1-0.4,0-0.8-0.4-1.1l-2.9-2.5l3.8-0.3c0.4,0,0.7-0.3,0.9-0.7l1.4-3.5l1.5,3.5
			c0.1,0.4,0.5,0.6,0.9,0.7l3.8,0.3L88.5,15.2z"/>
	</g>
</g>
<path class="st10" d="M173.5,13.2h-1.4v-1.1c0-0.5-0.4-1-1-1h-1.4v-0.9c0-0.5-0.4-1-1-1h-1.7c-0.5,0-1,0.4-1,1v2.9h-4.5v-2.9
	c0-0.5-0.4-1-1-1h-1.7c-0.5,0-1,0.4-1,1v0.9h-1.4c-0.5,0-1,0.4-1,1v1.1h-1.4c-0.3,0-0.5,0.2-0.5,0.5v2.2c0,0.3,0.2,0.5,0.5,0.5h1.4
	v1.1c0,0.5,0.4,1,1,1h1.4v0.9c0,0.5,0.4,1,1,1h1.7c0.5,0,1-0.4,1-1v-3h4.5v3c0,0.5,0.4,1,1,1h1.7c0.5,0,1-0.4,1-1v-0.9h1.4
	c0.5,0,1-0.4,1-1v-1.1h1.4c0.3,0,0.5-0.2,0.5-0.5v-2.2C174,13.4,173.8,13.2,173.5,13.2z M154.9,15.4v-1.2h0.9v1.2H154.9z
	 M156.7,17.5v-5.3h1.4v5.3H156.7z M160.7,19.3h-1.6v-1.8v-5.4v-1.8h1.6V19.3z M161.7,15.4v-1.2h4.5v1.2H161.7z M168.7,19.3h-1.6v-9
	h1.6v1.8v5.4V19.3z M171.1,17.5h-1.4v-5.3h1.4V17.5z M173,15.4h-0.9v-1.2h0.9V15.4z"/>
<path class="st10" d="M18.7,13.7l1-0.1c0,0,0,0,0,0c0.7-0.1,1.3-0.4,1.7-1l0.8-1.1c0.7-1,0.9-2.2,0.7-3.3c0-0.2-0.2-0.4-0.3-0.6
	c-0.2-0.2-0.4-0.2-0.6-0.3c-1.2-0.1-2.3,0.3-3.2,1.1l-1,0.9c-0.5,0.5-0.8,1.1-0.8,1.8c0,0,0,0,0,0l0.1,1c0,0.4-0.1,0.8-0.4,1l-8,8.3
	c-0.2,0.2-0.3,0.5-0.3,0.9c0,0.4,0.2,0.7,0.5,1c0.2,0.2,0.6,0.3,0.9,0.3c0,0,0.1,0,0.1,0c0.3,0,0.6-0.2,0.8-0.4l7.2-9
	C18,13.9,18.3,13.7,18.7,13.7z M17.4,13.9l-7.2,9C10,23,9.8,23.1,9.6,23.1c-0.2,0-0.5-0.1-0.6-0.2c-0.2-0.2-0.3-0.4-0.3-0.6
	c0-0.2,0.1-0.4,0.2-0.5l8-8.3c0.4-0.4,0.6-0.9,0.5-1.4l-0.1-1c0-0.5,0.2-1.1,0.6-1.4l1-0.9c0.8-0.7,1.8-1.1,2.9-1
	c0.1,0,0.2,0.1,0.3,0.1c0.1,0.1,0.2,0.2,0.2,0.3c0.2,1-0.1,2.1-0.7,3L21,12.4c-0.3,0.5-0.8,0.7-1.3,0.8l-1,0.1
	C18.2,13.2,17.7,13.5,17.4,13.9z"/>
<path class="st10" d="M22.5,21.4l-5.4-4.9c-0.1-0.1-0.3-0.1-0.4,0c-0.1,0.1-0.1,0.3,0,0.4l5.4,4.9c0.1,0.1,0.2,0.3,0.2,0.5
	c0,0.2-0.1,0.5-0.2,0.6c-0.2,0.2-0.4,0.3-0.6,0.2c-0.2,0-0.4-0.1-0.5-0.2l-4.8-5.3c-0.1-0.1-0.2-0.1-0.4,0c-0.1,0.1-0.1,0.2,0,0.4
	l4.8,5.3c0.2,0.2,0.5,0.4,0.8,0.4c0,0,0,0,0,0c0.4,0,0.7-0.1,1-0.4c0.3-0.3,0.4-0.6,0.4-1C22.9,21.9,22.8,21.6,22.5,21.4z"/>
<path class="st10" d="M9.4,13.7c0.4,0.4,0.9,0.6,1.5,0.6c0,0,0,0,0,0l1,0c0.4,0,0.7,0.2,1,0.4l0.4,0.5c0,0.1,0.1,0.1,0.2,0.1
	c0.1,0,0.1,0,0.2-0.1c0.1-0.1,0.1-0.2,0-0.4l-0.4-0.5c-0.4-0.4-0.8-0.6-1.4-0.6l-1,0c-0.4,0-0.8-0.2-1.2-0.5L6.9,9.9
	c0,0,0-0.1,0-0.1c0,0,0,0,0.1,0c0,0,0,0,0.1,0l2.6,2.6c0.3,0.3,0.7,0.3,0.9,0l0.3-0.3v0l0.5-0.5c0,0,0,0,0,0l0,0l0.3-0.3
	c0.3-0.3,0.3-0.7,0-0.9L9.1,7.7c0,0,0-0.1,0-0.1c0,0,0.1,0,0.1,0l3.4,2.8c0.3,0.3,0.5,0.7,0.5,1.2l0,1c0,0.5,0.2,1,0.6,1.4l0.5,0.4
	c0.1,0.1,0.3,0.1,0.4,0c0.1-0.1,0.1-0.3,0-0.4L14,13.6c-0.3-0.3-0.4-0.6-0.4-1l0-1c0,0,0,0,0,0c0-0.6-0.2-1.1-0.6-1.5c0,0,0,0,0,0
	L9.5,7.2C9.3,7,9,7.1,8.8,7.3c-0.2,0.2-0.2,0.6,0,0.8l2.6,2.6c0.1,0.1,0.1,0.2,0,0.2L11.2,11L8.3,8.2C8.2,8.1,8.1,8.1,8,8.2
	C7.9,8.3,7.9,8.4,8,8.5l2.9,2.9l-0.2,0.2L7.8,8.7c-0.1-0.1-0.3-0.1-0.4,0C7.4,8.8,7.4,8.9,7.4,9l2.9,2.9L10.2,12
	c-0.1,0.1-0.2,0.1-0.2,0L7.4,9.5C7.3,9.4,7.1,9.3,7,9.3S6.7,9.4,6.6,9.5c-0.2,0.2-0.2,0.6,0,0.8L9.4,13.7
	C9.4,13.6,9.4,13.6,9.4,13.7z"/>
<path class="st10" d="M255.3,12.2h-4.6V7.8c0-0.3-0.2-0.5-0.5-0.5h-5c-0.3,0-0.5,0.2-0.5,0.5v4.4h-4.6c-0.3,0-0.5,0.2-0.5,0.5v4.9
	c0,0.3,0.2,0.5,0.5,0.5h4.6v4.4c0,0.3,0.2,0.5,0.5,0.5h5c0.3,0,0.5-0.2,0.5-0.5v-4.4h4.6c0.3,0,0.5-0.2,0.5-0.5v-4.9
	C255.8,12.4,255.6,12.2,255.3,12.2z M254.9,17h-4.6c-0.3,0-0.5,0.2-0.5,0.5v4.4h-4.1v-4.4c0-0.3-0.2-0.5-0.5-0.5h-4.6v-3.9h4.6
	c0.3,0,0.5-0.2,0.5-0.5V8.2h4.1v4.4c0,0.3,0.2,0.5,0.5,0.5h4.6V17z"/>
</svg>
