<?xml version="1.0" encoding="utf-8"?>
<!-- Generator: Adobe Illustrator 24.0.2, SVG Export Plug-In . SVG Version: 6.00 Build 0)  -->
<svg version="1.1" id="Слой_1" xmlns="http://www.w3.org/2000/svg" xmlns:xlink="http://www.w3.org/1999/xlink" x="0px" y="0px"
	 viewBox="0 0 48.7 58.9" style="enable-background:new 0 0 48.7 58.9;" xml:space="preserve">
<style type="text/css">
	.st0{fill:#E18335;}
</style>
<path class="st0" d="M41.6,39.6L41.6,39.6C39,37,35.8,35,32.3,33.8c0.7-0.5,1.4-1.1,2-1.7l0,0c2.5-2.6,4.1-6.1,4.1-9.9
	c0-0.9-0.1-1.9-0.3-2.8c-0.1-0.3-0.1-0.6-0.2-1c0.1-0.1,0.2-0.3,0.3-0.4c0-0.1,0.1-0.1,0.1-0.2l3.5-7.4c0.1-0.2,0.2-0.4,0.2-0.6
	c0.3-1.1-0.4-2.2-1.5-2.5c-2.8-0.7-5.5-1.7-7.9-2.8c-2.5-1.1-4.8-2.5-7.1-4c-0.7-0.5-1.6-0.5-2.3-0.1c-2.4,1.5-4.8,2.7-7.4,3.8
	c-2.6,1.1-5.2,2.1-8,2.9l-0.1,0C6.8,7.4,6.2,8.6,6.6,9.7l2.7,7.8c0.1,0.5,0.4,0.9,0.8,1.1l0.5,0.3l-0.1,0.5
	c-0.2,0.9-0.3,1.8-0.3,2.6c0,3.9,1.6,7.4,4.1,9.9l0,0c0.6,0.6,1.3,1.2,2,1.7C12.9,35,9.8,37,7.2,39.5l0,0C2.7,44,0,50.1,0,56.8
	c0,1.2,0.9,2.1,2.1,2.1c1.2,0,2.1-0.9,2.1-2.1c0-5.6,2.3-10.6,5.9-14.3c3.7-3.6,8.7-5.9,14.3-5.9s10.6,2.3,14.3,5.9
	c3.6,3.7,5.9,8.7,5.9,14.3c0,1.2,0.9,2.1,2.1,2.1s2.1-0.9,2.1-2.1C48.7,50.1,46,44,41.6,39.6z M12.4,13.9l-1.3-3.6
	c2.2-0.7,4.3-1.5,6.4-2.4c2.3-1,4.6-2.1,6.7-3.4c2.1,1.3,4.3,2.6,6.6,3.6c2,0.9,4.1,1.7,6.2,2.4l-1.7,3.6c-4-1.8-7.9-2.8-11.8-2.8
	C19.8,11.3,16.1,12.1,12.4,13.9z M31.8,17.2c-0.4,0.2-0.9,0.4-1.3,0.6l0,0c-1.4,0.6-2.9,1-4.3,1.1L26,19c-0.5,0.1-1,0.1-1.5,0.1
	c-2.8,0-5.6-0.7-8.5-2.2c2.5-1,4.9-1.4,7.5-1.4C26.2,15.5,28.9,16.1,31.8,17.2z M24.4,32.1c-2.7,0-5.2-1.1-7-2.9
	c-1.8-1.8-2.9-4.3-2.9-7c0-0.4,0-0.7,0-1c3,1.3,6,2.1,9,2.1c1.1,0,2.1,0,3.2-0.2l0.1,0c1.8-0.2,3.6-0.7,5.3-1.4
	c0.7-0.3,1.4-0.6,2.1-0.9c0.1,0.5,0.1,1,0.1,1.5c0,2.7-1.1,5.2-2.9,7C29.6,30.9,27.1,32.1,24.4,32.1z"/>
<path class="st0" d="M35.8,43.9l-8,0c-1.1,0-2,0.8-2.1,1.9c-0.2,2.2,0.1,4.1,1,5.8c0.9,1.7,2.2,3,4.1,4.1c0.6,0.3,1.3,0.4,1.9,0.1
	c1.7-0.8,3.1-2.1,4-3.8c0.8-1.6,1.3-3.5,1.2-5.9l0,0C37.9,44.9,36.9,43.9,35.8,43.9z M33,50c-0.3,0.5-0.7,1-1.2,1.4
	c-0.6-0.5-1.1-1.1-1.4-1.7c-0.2-0.5-0.4-1-0.5-1.6h3.7C33.5,48.9,33.3,49.5,33,50z"/>
</svg>
