<?xml version="1.0" encoding="utf-8"?>
<!-- Generator: Adobe Illustrator 24.0.2, SVG Export Plug-In . SVG Version: 6.00 Build 0)  -->
<svg version="1.1" id="Слой_1" xmlns="http://www.w3.org/2000/svg" xmlns:xlink="http://www.w3.org/1999/xlink" x="0px" y="0px"
	 viewBox="0 0 91.8 77.3" style="enable-background:new 0 0 91.8 77.3;" xml:space="preserve" width="51px" height="41px">
<style type="text/css">
	.st0{fill:#84B236;stroke:#84B236;stroke-width:0.5;stroke-miterlimit:10;}
</style>
<g>
	<path class="st0" d="M16.2,69.7c0.4,0.4,0.9,0.6,1.4,0.6c0.5,0,1-0.2,1.4-0.6c1.2-1.2,5.5-5.5,9.3-10.7c2.6-3.6,6-9,6-14.2
		c0-9.2-7.5-16.6-16.6-16.6S1,35.6,1,44.8C1,49.9,4.4,55.4,7,59C10.7,64.3,15,68.5,16.2,69.7z M17.7,31.2c7.5,0,13.5,6.1,13.5,13.5
		c0,4.3-3.1,9.1-5.4,12.4c-3,4.3-6.4,7.9-8.1,9.6c-1.7-1.7-5.1-5.3-8.1-9.6c-2.3-3.3-5.4-8.1-5.4-12.4C4.1,37.3,10.2,31.2,17.7,31.2
		z"/>
	<path class="st0" d="M17.7,52.1c4,0,7.3-3.3,7.3-7.3c0-4-3.3-7.3-7.3-7.3c-4,0-7.3,3.3-7.3,7.3S13.6,52.1,17.7,52.1z M17.7,40.1
		c2.6,0,4.6,2.1,4.6,4.6c0,2.6-2.1,4.6-4.6,4.6c-2.6,0-4.6-2.1-4.6-4.6C13,42.2,15.1,40.1,17.7,40.1z"/>
	<path class="st0" d="M78,0.8c-7.2,0-13,5.8-13,13c0,4,2.6,8.2,4.6,11.1c2.9,4.1,6.2,7.4,7.2,8.3c0.3,0.3,0.7,0.5,1.2,0.5
		s0.9-0.2,1.2-0.5c0.9-0.9,4.3-4.2,7.2-8.3c2-2.8,4.6-7,4.6-11.1C91,6.6,85.2,0.8,78,0.8z M84.2,23.3c-2.3,3.2-4.8,5.9-6.2,7.3
		c-1.3-1.3-3.9-4.1-6.2-7.3c-1.8-2.5-4.1-6.2-4.1-9.5c0-5.7,4.6-10.3,10.3-10.3c5.7,0,10.3,4.6,10.3,10.3
		C88.3,17.1,86,20.8,84.2,23.3z"/>
	<path class="st0" d="M78,8.1c-3.2,0-5.7,2.6-5.7,5.7c0,3.2,2.6,5.7,5.7,5.7c3.2,0,5.7-2.6,5.7-5.7C83.7,10.6,81.2,8.1,78,8.1z
		 M78,17.3c-1.9,0-3.5-1.6-3.5-3.5c0-1.9,1.6-3.5,3.5-3.5s3.5,1.6,3.5,3.5C81.5,15.7,79.9,17.3,78,17.3z"/>
	<path class="st0" d="M32.2,70.6c-2.5,1-5.5,1.7-8.8,2.1l0.4,3.5c3.7-0.5,6.8-1.2,9.7-2.4L32.2,70.6z"/>
	<path class="st0" d="M71.6,37.4c-3.7,0.5-6.8,1.3-9.7,2.4l1.3,3.3c2.5-1,5.5-1.8,8.8-2.2L71.6,37.4z"/>
	<path class="st0" d="M46.3,56c-0.7,1.4-1.5,2.8-2.3,4.2l3,1.8c0.9-1.4,1.7-2.9,2.4-4.3c0.7-1.3,1.5-2.7,2.2-4l-3.1-1.8
		C47.8,53.2,47,54.6,46.3,56z"/>
	<path class="st0" d="M60.1,44.7l-1.8-3.1c-2.9,1.7-5.3,4-7.5,6.9l2.9,2.1C55.5,48.1,57.6,46.2,60.1,44.7z"/>
	<path class="st0" d="M35.4,69.1l1.8,3.1c2.9-1.7,5.4-3.9,7.5-6.8l-2.8-2.1C40,65.7,37.9,67.6,35.4,69.1z"/>
</g>
</svg>
