<svg version="1.1" id="Слой_1" xmlns="http://www.w3.org/2000/svg" xmlns:xlink="http://www.w3.org/1999/xlink" x="0px" y="0px" viewBox="0 0 100 100" style="enable-background:new 0 0 100 100;" xml:space="preserve" width="32px" height="32px">
<style type="text/css">
	.st0{fill:#30C1C3;stroke:#30C1C3;stroke-width:3;stroke-miterlimit:10;}
</style>
<g>
	<path class="st0" d="M90.7,74.9L62.9,48.7c-0.2-0.2-0.5-0.4-0.7-0.4l-17.7-5.9L27,24.9l-0.2-11.5c0-0.7-0.4-1.3-1-1.7L10.2,2.2   C9.4,1.7,8.4,1.9,7.8,2.5L1.5,8.8c-0.6,0.6-0.8,1.6-0.3,2.4L10.3,27c0.4,0.6,1,1,1.7,1l0,0l12.2-0.2L42,45.5   c0.2,0.2,0.5,0.4,0.8,0.5l17.7,5.9L88,77.8l0.1,0.1c1.8,1.5,8.1,7.7,5.8,11c-0.6,0.9-0.4,2.2,0.5,2.8c0.4,0.2,0.8,0.4,1.2,0.4   c0.6,0,1.2-0.3,1.6-0.8C102,84.5,92.1,76,90.7,74.9z M13.2,23.9L5.4,10.5l4.1-4.1l13.3,8.1l0.2,9.2L13.2,23.9z"/>
	<path class="st0" d="M89.2,94c0,0-3.8,1.7-10.6-5.3c-7.5-7.7-24-24-26.6-26.6l-3.3-10c-0.3-1-1.5-1.6-2.5-1.3   c-1.1,0.3-1.6,1.5-1.3,2.5l3.4,10.5c0.1,0.3,0.3,0.6,0.5,0.8s18.8,18.6,26.9,26.9c5.4,5.5,9.6,6.7,12.3,6.7c1.8,0,2.9-0.6,3.2-0.7   c1-0.5,1.3-1.8,0.8-2.7C91.3,93.8,90.1,93.5,89.2,94z"/>
	<path class="st0" d="M42.8,66.7l-18.2,18c-1.8,1.8-3.2,3.3-4.5,4.8c-2,2.3-5,5.8-10.3,4.9c-1.1-0.2-2.1,0.5-2.3,1.6   c-0.2,1.1,0.5,2.1,1.6,2.3c0.9,0.2,1.7,0.2,2.5,0.2c6.1,0,9.7-4.3,11.6-6.5c1.2-1.4,2.5-2.8,4.2-4.5l18.2-18c0.8-0.8,0.8-2,0-2.8   S43.6,66,42.8,66.7z"/>
	<path class="st0" d="M38.7,50.9c0.8-0.8,0.8-2,0-2.8s-2-0.8-2.8,0C35.6,48.3,8.6,75.3,3.8,79.8c-4.7,4.5-3.5,9.7-2.1,11.9   c0.4,0.6,1,0.9,1.7,0.9c0.4,0,0.7-0.1,1-0.3c0.9-0.6,1.2-1.8,0.7-2.7c-0.2-0.4-2-3.7,1.5-6.9C11.4,78.2,37.6,52,38.7,50.9z"/>
	<path class="st0" d="M97.8,15.9c-0.2-0.6-0.8-1.1-1.4-1.3c-0.7-0.2-1.3,0-1.8,0.5L86.4,23c-0.1,0.1-7.2,7.3-12.2,4.1   c-1-0.6-1.4-1.9-1.8-3.1c-0.9-2.7-0.1-5.8,2-8L84.7,5.8c0.5-0.5,0.7-1.3,0.5-1.9s-0.7-1.2-1.4-1.4c-0.3-0.1-6-1.5-11.4-0.9   c-6.6,0.7-11.6,3.8-17.2,10.8c-5.5,6.7-3.1,15.6-1.9,19l-5.8,5.5c-0.8,0.8-0.8,2-0.1,2.8c0.8,0.8,2,0.8,2.8,0.1l6.7-6.4   c0.6-0.6,0.8-1.5,0.4-2.3c0-0.1-4.3-9.8,0.9-16.2c5.7-7,10-8.8,14.5-9.3c2.2-0.2,4.4-0.1,6.3,0.1l-7.5,7.6c-3.2,3.2-4.4,7.9-3,12.1   c0.5,1.5,1.3,3.8,3.5,5.2c7.8,4.9,16.9-4.4,17.2-4.7l5.7-5.4c0.6,2.7,1,6.4,0,9.2c-1.7,5.1-5.4,11.5-12.8,13.1   c-7.6,1.6-14.4-0.2-14.5-0.2c-1.1-0.3-2.2,0.3-2.5,1.4c-0.3,1.1,0.3,2.2,1.4,2.5c0.2,0.1,3.8,1,8.8,1c2.3,0,4.8-0.2,7.5-0.8   C90,45.2,95.6,39.6,98.5,31C100.9,24.5,97.9,16.3,97.8,15.9z"/>
</g>
</svg>