<?xml version="1.0" encoding="utf-8"?>
<!-- Generator: Adobe Illustrator 24.0.2, SVG Export Plug-In . SVG Version: 6.00 Build 0)  -->
<svg version="1.1" id="Слой_1" xmlns="http://www.w3.org/2000/svg" xmlns:xlink="http://www.w3.org/1999/xlink" x="0px" y="0px"
	 viewBox="0 0 100 100" style="enable-background:new 0 0 100 100;" xml:space="preserve">
<style type="text/css">
	.st0{fill:#30C1C3;}
</style>
<g>
	<g>
		<path class="st0" d="M50,68.8c12.1,0,21.9-9.8,21.9-21.9c0-13.1-17.3-39.4-19.3-42.4L50,0.6l-2.6,3.9c-2,3-19.3,29.3-19.3,42.4
			C28.1,58.9,37.9,68.8,50,68.8z M50,12c6,9.5,15.6,26.7,15.6,34.8c0,8.6-7,15.6-15.6,15.6s-15.6-7-15.6-15.6
			C34.4,38.8,44,21.6,50,12z"/>
		<path class="st0" d="M86.6,75.4c-3.1-1.6-6.6-3.5-13.2-3.5s-10.1,1.9-13.2,3.5c-2.8,1.5-5.2,2.8-10.2,2.8c-5.1,0-7.5-1.3-10.2-2.8
			c-3.1-1.6-6.5-3.5-13.2-3.5c-6.6,0-10.1,1.9-13.2,3.5c-2.8,1.5-5.2,2.8-10.2,2.8v6.3c6.6,0,10.1-1.9,13.2-3.5
			c2.8-1.5,5.2-2.8,10.2-2.8c5.1,0,7.5,1.3,10.2,2.8c3.1,1.6,6.5,3.5,13.2,3.5c6.6,0,10.1-1.9,13.2-3.5c2.8-1.5,5.2-2.8,10.2-2.8
			c5.1,0,7.5,1.3,10.3,2.8c3.1,1.6,6.6,3.5,13.2,3.5v-6.3C91.8,78.1,89.4,76.8,86.6,75.4z"/>
		<path class="st0" d="M73.4,84.4c-6.6,0-10.1,1.9-13.2,3.5c-2.8,1.5-5.2,2.8-10.2,2.8c-5.1,0-7.5-1.3-10.2-2.8
			c-3.1-1.6-6.5-3.5-13.2-3.5c-6.6,0-10.1,1.9-13.2,3.5c-2.8,1.5-5.2,2.8-10.2,2.8v6.3c6.6,0,10.1-1.9,13.2-3.5
			c2.8-1.5,5.2-2.8,10.2-2.8c5.1,0,7.5,1.3,10.2,2.8c3.1,1.6,6.5,3.5,13.2,3.5c6.6,0,10.1-1.9,13.2-3.5c2.8-1.5,5.2-2.8,10.2-2.8
			c5.1,0,7.5,1.3,10.3,2.8c3.1,1.6,6.6,3.5,13.2,3.5v-6.3c-5.1,0-7.5-1.3-10.3-2.8C83.6,86.2,80.1,84.4,73.4,84.4z"/>
	</g>
</g>
</svg>
