<?xml version="1.0" encoding="utf-8"?>
<!-- Generator: Adobe Illustrator 24.0.2, SVG Export Plug-In . SVG Version: 6.00 Build 0)  -->
<svg version="1.1" id="Слой_1" xmlns="http://www.w3.org/2000/svg" xmlns:xlink="http://www.w3.org/1999/xlink" x="0px" y="0px"
	 viewBox="0 0 100 82.5" style="enable-background:new 0 0 100 82.5;" xml:space="preserve" height="40px" width="48px">
<style type="text/css">
	.st0{fill:#84B236;}
</style>
<path class="st0" d="M31.3,0v10.7h-6.6v1.5v11.6H7.3v1.5v38.5h17.4v4.9h-2.8v2h2.8v1h15.9h5.5v10.7h40.1V71.8h3.1v-7.5H100v-1.5
	V24.2H89.3V10.7H65.5V0H64C64,0,31.3,0,31.3,0z M34.4,3.1h28.1v7.6H34.4C34.4,10.7,34.4,3.1,34.4,3.1z M1,13.7v1H0v2.3h2v-1.3h5v-2
	H1z M9,13.7v2h6v-2H9z M17,13.7v2h6v-2H17z M27.8,13.8h44.8c1.2,6.9,6.7,12.3,13.6,13.5v16.4H68.9l-7.4-9.9l-1.3,0.9l8,13.3h18v16.3
	v4.4h-3.1V64H61.2v4.6H40.6V42.9H27.8v-0.2v-5.9H44v6.9V48h11.2v-4.3h-6.9V32.5H27.8v-3.7v-2v-2.9v-3.1v-2v-4.1L27.8,13.8z M75,13.8
	h11.2v10.4v0.6c0,0,0,0-0.1,0c-0.5-0.1-0.9-0.2-1.4-0.4c-0.5-0.1-0.9-0.3-1.3-0.5c-0.4-0.2-0.9-0.4-1.3-0.6
	c-0.4-0.2-0.8-0.5-1.2-0.7c-0.4-0.3-0.8-0.6-1.1-0.9c-0.4-0.3-0.7-0.6-1-1c-0.3-0.3-0.6-0.7-0.9-1.1c-0.3-0.4-0.6-0.8-0.8-1.2
	c-0.3-0.4-0.5-0.8-0.7-1.2c-0.2-0.4-0.4-0.9-0.6-1.3c-0.2-0.4-0.3-0.9-0.4-1.4C75.1,14.4,75,14.1,75,13.8z M0,18.9v6h2v-6H0z
	 M0,26.9v6h2v-6H0z M10.4,26.9h14.3v5.5v4.3v6.2v17.9H10.4V26.9z M89.3,27.3h7.6v33.9h-7.6V48V27.3z M0,34.9v6h2v-6H0z M0,42.9v6h2
	v-6L0,42.9z M27.8,46h9.8v5.4h-9.8v-0.7V46z M0,50.8v6h2v-6H0z M27.8,53.9h9.8v6.3h-9.8v-1.5V53.9z M0,58.8v6h2v-6H0z M27.8,62.7
	h9.8v6h-9.8v-2v-2.8V62.7z M0,66.8v3v1h1h3v-2H2v-2H0z M6,68.8v2h6v-2H6z M14,68.8v2h6v-2H14z M49.2,71.8h33.9v7.6H49.2
	C49.2,79.4,49.2,71.8,49.2,71.8z"/>
</svg>
