<svg version="1.1" id="Слой_1" xmlns="http://www.w3.org/2000/svg" xmlns:xlink="http://www.w3.org/1999/xlink" x="0px" y="0px" viewBox="0 0 100 100" style="enable-background:new 0 0 100 100;" xml:space="preserve" width="30px" heigth="30px">
<style type="text/css">
	.st0{fill:#E4CC37;stroke:#E4CC37;stroke-width:3;stroke-miterlimit:10;}
</style>
<title>117all</title>
<path class="st0" d="M67.4,16C66.3,8.3,59.8,2.5,52,2.5h-3.1c-8.6,0-15.5,7-15.6,15.5v51.4c-3,0.9-5.1,3.7-5.1,6.8v17.3h-6.3  c-1.1,0-2,0.9-2,2s0.9,2,2,2h26.8c1.1,0,2-0.9,2-2s-0.9-2-2-2h-6.2V76.3c0-3.2-2.1-5.9-5.1-6.8V18c0-6.4,5.2-11.5,11.5-11.5h3.1  c5.6,0,10.4,4,11.4,9.5c-7.3,1-12.6,7.3-12.7,14.6c0,1.1,0.9,2,2,2c0,0,0,0,0,0h5.6c1,2.8,3.7,4.7,6.7,4.7h0.8c3,0,5.7-1.9,6.7-4.7  h5.6c1.1,0,2-0.9,2-2C80.1,23.2,74.7,17,67.4,16z M38.4,76.3v17.3h-6.2V76.3c0.1-1.7,1.6-3,3.3-2.9C37,73.4,38.3,74.7,38.4,76.3  L38.4,76.3z M65.7,33.3H65c-0.7,0-1.4-0.2-2-0.7h4.7C67.1,33,66.5,33.3,65.7,33.3L65.7,33.3z M54.8,28.6c1.1-5.8,6.7-9.6,12.6-8.5  c4.3,0.8,7.7,4.2,8.5,8.5H54.8z"/>
</svg>