<?xml version="1.0" encoding="utf-8"?>
<!-- Generator: Adobe Illustrator 24.0.2, SVG Export Plug-In . SVG Version: 6.00 Build 0)  -->
<svg version="1.1" id="Слой_1" xmlns="http://www.w3.org/2000/svg" xmlns:xlink="http://www.w3.org/1999/xlink" x="0px" y="0px"
	 viewBox="0 0 77 86.3" style="enable-background:new 0 0 77 86.3;" xml:space="preserve">
<style type="text/css">
	.st0{fill:#C3423F;}
</style>
<g>
	<path class="st0" d="M43.3,74.7v-5.3c0-6.4,5.2-11.7,11.7-11.7H77v5.1H54.9c-3.6,0-6.6,3-6.6,6.6c0,1.8,0,3.6,0,5.4
		c-0.1,6.4-5.3,11.5-11.7,11.5h-5.4c-6.4,0-11.7-5.2-11.7-11.7V60.7C8.8,60.7,0,51.8,0,41V18.5h8.8V9.5H8.1V0h7.1v9.5h-0.8v8.9h15.9
		V9.5h-0.8V0c2.4,0,4.7,0,7.1,0v9.5h-0.8v8.9h8.8V41c0,11-9,19.7-19.9,19.7v13.9c0,3.6,3,6.6,6.6,6.6h5.4
		C40.2,81.2,43.2,78.3,43.3,74.7z M34,2.5h-2V7h2V2.5z M12.6,2.5h-2V7h2V2.5z M39.5,23.5H5.1V41c0,8,6.6,14.6,14.6,14.6h5.3
		c8,0,14.6-6.6,14.6-14.6C39.5,41,39.5,23.5,39.5,23.5z"/>
</g>
</svg>
