<?xml version="1.0" encoding="utf-8"?>
<!-- Generator: Adobe Illustrator 24.0.2, SVG Export Plug-In . SVG Version: 6.00 Build 0)  -->
<svg version="1.1" id="Слой_1" xmlns="http://www.w3.org/2000/svg" xmlns:xlink="http://www.w3.org/1999/xlink" x="0px" y="0px"
	 viewBox="0 0 70.3 90.5" style="enable-background:new 0 0 70.3 90.5;" xml:space="preserve">
<style type="text/css">
	.st0{fill:#8963BA;stroke:#8963BA;stroke-width:2;stroke-miterlimit:10;}
</style>
<g transform="translate(0,-952.36218)">
	<path class="st0" d="M40.1,953.7c-0.2,0-0.4,0-0.5,0.1l-20,5.5c-1.1,0.3-1.7,1.4-1.4,2.5c0.3,1.1,1.4,1.7,2.5,1.4l0,0l20-5.5
		c1.1-0.3,1.7-1.4,1.4-2.4C41.9,954.3,41.1,953.6,40.1,953.7z M63.2,958.6c-0.1,0-0.2,0-0.3,0.1L2.6,974.7c-1.1,0.3-1.7,1.4-1.4,2.5
		c0,0,0,0,0,0L5,991.3c0.3,1,1.3,1.6,2.3,1.4l2.8,47c0.1,1.1,0.9,1.9,2,1.9h46c1.1,0,1.9-0.8,2-1.9l2.8-47.4l0.4,0.2
		c1,0.4,2.2-0.1,2.6-1.1c0.2-0.4,0.2-0.9,0.1-1.3L62.6,978l5-1.3c0.1,0,0.1,0,0.2-0.1c1-0.4,1.5-1.4,1.2-2.4l-3.8-14.1
		C65,959.1,64.1,958.5,63.2,958.6z M61.9,963l2.7,10.3L8.4,988.4l-2.8-10.3L61.9,963z M58.7,979l2.4,8.3L47.5,982L58.7,979z
		 M40.9,983.8l4.5,1.8l-6.7,6.7l-9.5-5.3L40.9,983.8z M49.5,987.1l9.6,3.7l-2.8,46.8H14l-2.7-46l12.5-3.3l9.3,5.2v33.1
		c0,1.1,0.9,2,2,2s2-0.9,2-2c0,0,0,0,0-0.1v-30.8l1,0.6c0.8,0.4,1.7,0.3,2.4-0.3L49.5,987.1z M23.9,997.7c-1,0.1-1.8,1-1.8,2v20
		c0,1.1,0.9,2,2,2s2-0.9,2-2c0,0,0,0,0-0.1v-20c0-1.1-0.9-2-2-2C24.1,997.6,24,997.6,23.9,997.7z M45.9,997.7c-1,0.1-1.8,1-1.8,2v20
		c0,1.1,0.9,2,2,2s2-0.9,2-2c0,0,0,0,0-0.1v-20c0-1.1-0.9-2-2-2C46.1,997.6,46,997.6,45.9,997.7z"/>
</g>
</svg>
