<?xml version="1.0" encoding="utf-8"?>
<!-- Generator: Adobe Illustrator 24.0.2, SVG Export Plug-In . SVG Version: 6.00 Build 0)  -->
<svg version="1.1" id="Слой_1" xmlns="http://www.w3.org/2000/svg" xmlns:xlink="http://www.w3.org/1999/xlink" x="0px" y="0px"
	 viewBox="0 0 100 93.8" style="enable-background:new 0 0 100 93.8;" xml:space="preserve">
<style type="text/css">
	.st0{fill:#1E91D6;}
</style>
<g>
	<path class="st0" d="M64.6,25H9.4c-1.7,0-3.1-1.4-3.1-3.1V3.1C6.3,1.4,7.6,0,9.4,0h81.3c1.7,0,3.1,1.4,3.1,3.1c0,0.3-0.1,0.7-0.2,1
		C89.4,16.6,77.8,25,64.6,25z M12.5,18.8h52.1c8.8,0,17-4.8,21.3-12.5H12.5V18.8z"/>
	<path class="st0" d="M84.4,43.8h-75c-1.7,0-3.1-1.4-3.1-3.1V21.9c0-1.7,1.4-3.1,3.1-3.1s3.1,1.4,3.1,3.1v15.6h68.8V13.4
		c0-1.7,1.4-3.1,3.1-3.1s3.1,1.4,3.1,3.1v27.2C87.5,42.4,86.1,43.8,84.4,43.8z"/>
	<path class="st0" d="M96.9,37.5H84.4c-1.7,0-3.1-1.4-3.1-3.1V15.6c0-1.7,1.4-3.1,3.1-3.1h12.5c1.7,0,3.1,1.4,3.1,3.1v18.8
		C100,36.1,98.6,37.5,96.9,37.5z M87.5,31.3h6.3V18.8h-6.3V31.3z"/>
	<path class="st0" d="M15.6,93.8H3.1c-1.7,0-3.1-1.4-3.1-3.1V53.1C0,51.4,1.4,50,3.1,50h12.5c1.7,0,3.1,1.4,3.1,3.1v37.5
		C18.8,92.4,17.4,93.8,15.6,93.8z M6.3,87.5h6.3V56.3H6.3V87.5z"/>
	<path class="st0" d="M53.1,56.3H40.6c-1.7,0-3.1-1.4-3.1-3.1V40.6c0-1.7,1.4-3.1,3.1-3.1h12.5c1.7,0,3.1,1.4,3.1,3.1v12.5
		C56.3,54.9,54.9,56.3,53.1,56.3z M43.8,50H50v-6.3h-6.3V50z"/>
	<path class="st0" d="M34.4,75H15.6c-1.7,0-3.1-1.4-3.1-3.1c0-1.7,1.4-3.1,3.1-3.1h18.8c5.2,0,9.4-4.2,9.4-9.4v-6.3
		c0-1.7,1.4-3.1,3.1-3.1s3.1,1.4,3.1,3.1v6.3C50,68,43,75,34.4,75z"/>
</g>
</svg>
