<?xml version="1.0" encoding="utf-8"?>
<!-- Generator: Adobe Illustrator 24.0.2, SVG Export Plug-In . SVG Version: 6.00 Build 0)  -->
<svg version="1.1" id="Слой_1" xmlns="http://www.w3.org/2000/svg" xmlns:xlink="http://www.w3.org/1999/xlink" x="0px" y="0px"
	 viewBox="0 0 67.8 102.9" style="enable-background:new 0 0 67.8 102.9;" xml:space="preserve">
<style type="text/css">
	.st0{fill-rule:evenodd;clip-rule:evenodd;fill:#8963BA;stroke:#8963BA;stroke-width:2;stroke-miterlimit:10;}
</style>
<g>
	<path class="st0" d="M66.4,1.3v50.5c0,13.1-10.6,23.8-23.6,24.1v5.4h11.1l-19.9,19.9L14,81.3h10.8v-5.4C12,75.5,1.5,64.8,1.5,51.8
		V1.3l4.6,0v33.3c0,7.6,12.2,7.5,13.8,0c0.3-1.5,4.3-1.5,4.6,0c1.5,7.2,17.3,7.2,18.8,0c0.3-1.5,4.3-1.5,4.6,0
		c1.5,7.5,13.8,7.6,13.8,0V1.3L66.4,1.3L66.4,1.3z M38.2,71.3c12.4,0,23.6-5.2,23.6-19.5v-8.8c-4.9,3.1-12.6,2.5-16.3-2.3
		c-5.3,5.3-17.6,5.3-22.9,0c-3.8,4.8-11.4,5.4-16.3,2.3v8.8c0,14.1,11,19.5,23.3,19.5c0,4.9,0,9.8,0,14.7h-4.3l8.7,8.7l8.7-8.7h-4.5
		C38.2,81.1,38.2,76.2,38.2,71.3L38.2,71.3z"/>
</g>
</svg>
