<?xml version="1.0" encoding="utf-8"?>
<!-- Generator: Adobe Illustrator 24.0.2, SVG Export Plug-In . SVG Version: 6.00 Build 0)  -->
<svg version="1.1" id="Слой_1" xmlns="http://www.w3.org/2000/svg" xmlns:xlink="http://www.w3.org/1999/xlink" x="0px" y="0px"
	 viewBox="0 0 93.8 93.8" style="enable-background:new 0 0 93.8 93.8;" xml:space="preserve">
<style type="text/css">
	.st0{fill-rule:evenodd;clip-rule:evenodd;fill:#1E91D6;}
</style>
<g transform="translate(0,-280.06669)">
	<path class="st0" d="M46.9,280.1C21,280.1,0,301.1,0,326.9c0,25.9,21,46.9,46.9,46.9s46.9-21,46.9-46.9
		C93.8,301.1,72.7,280.1,46.9,280.1z M43.8,286.5v18.5c-4.7-0.4-9.3-1.5-13.5-3.4c0.7-1.6,1.3-3.1,2.1-4.5c2.9-5.3,6.3-8.9,9.9-10.4
		C42.7,286.4,43.3,286.5,43.8,286.5z M50,286.5c0.5,0,1-0.1,1.5,0.1c3.7,1.5,7,5.1,9.9,10.4c0.8,1.4,1.4,2.9,2.1,4.5
		c-4.2,1.9-8.8,3.1-13.5,3.5V286.5z M29.1,290.4c-0.8,1.1-1.5,2.3-2.2,3.6c-0.8,1.4-1.5,3-2.2,4.5c-1.3-0.9-2.6-1.8-3.8-2.8
		C23.4,293.6,26.1,291.8,29.1,290.4z M64.7,290.4c2.9,1.4,5.6,3.2,8.1,5.2c-1.2,1-2.5,2-3.8,2.8c-0.7-1.6-1.4-3.1-2.1-4.5
		C66.2,292.7,65.5,291.5,64.7,290.4z M77.3,300c5.7,6.4,9.4,14.7,10.1,23.8h-13c-0.3-7-1.3-13.5-3.1-19.4
		C73.4,303.1,75.4,301.7,77.3,300z M16.4,300c1.9,1.6,4,3.1,6.1,4.4c-1.8,5.8-2.8,12.4-3.1,19.3h-13C7.1,314.7,10.7,306.5,16.4,300z
		 M65.5,307.4c1.4,4.9,2.3,10.5,2.5,16.4H50v-12.6C55.4,310.8,60.6,309.5,65.5,307.4z M28.2,307.4c4.9,2.1,10.2,3.4,15.5,3.8v12.6
		H25.7C25.9,317.9,26.8,312.4,28.2,307.4z M6.4,330.1h13c0.3,7,1.3,13.5,3.1,19.4c-2.1,1.3-4.2,2.8-6.1,4.4
		C10.7,347.4,7.1,339.2,6.4,330.1z M25.7,330.1h18.1v12.6c-5.4,0.4-10.6,1.7-15.5,3.8C26.8,341.5,25.9,336,25.7,330.1z M50,330.1
		h18.1c-0.2,5.9-1.1,11.5-2.5,16.4c-4.9-2.1-10.1-3.4-15.5-3.8V330.1z M74.3,330.1h13c-0.7,9.1-4.4,17.3-10,23.8
		c-1.9-1.6-4-3.1-6.1-4.4C73,343.6,74.1,337,74.3,330.1z M50,349c4.7,0.4,9.3,1.5,13.5,3.4c-0.7,1.6-1.3,3.1-2.1,4.5
		c-2.9,5.3-6.3,8.9-9.9,10.4c-0.5,0.2-1,0.1-1.5,0.1V349z M43.8,349v18.5c-0.5,0-1,0.1-1.5-0.1c-3.7-1.5-7-5.1-9.9-10.4
		c-0.8-1.4-1.4-2.9-2.1-4.5C34.5,350.5,39.1,349.3,43.8,349z M69,355.4c1.3,0.9,2.6,1.8,3.8,2.8c-2.5,2.1-5.2,3.8-8.1,5.3
		c0.8-1.1,1.5-2.3,2.2-3.5C67.7,358.5,68.4,357,69,355.4z M24.7,355.4c0.7,1.6,1.4,3.1,2.1,4.5c0.7,1.2,1.4,2.4,2.2,3.5
		c-2.9-1.4-5.6-3.2-8.1-5.2C22.2,357.2,23.4,356.3,24.7,355.4z"/>
</g>
</svg>
