<?xml version="1.0" encoding="utf-8"?>
<!-- Generator: Adobe Illustrator 24.0.2, SVG Export Plug-In . SVG Version: 6.00 Build 0)  -->
<svg version="1.1" id="Слой_1" xmlns="http://www.w3.org/2000/svg" xmlns:xlink="http://www.w3.org/1999/xlink" x="0px" y="0px"
	 viewBox="0 0 59.2 94.8" style="enable-background:new 0 0 59.2 94.8;" xml:space="preserve">
<style type="text/css">
	.st0{fill:#30C1C3;stroke:#30C1C3;stroke-width:2;stroke-miterlimit:10;}
</style>
<path class="st0" d="M27.5,1.5c-0.9,0.1-1.7,0.7-1.8,1.7c-2.5,14.6-8.1,20.5-13.4,26S1.7,40.3,1.7,52.5c0,6,2.7,11.1,6.7,15
	s9.1,6.7,14.5,8.5c1,0.3,2.2-0.2,2.5-1.3c0.2-0.7,0.1-1.4-0.4-1.9c-5-6-6.3-10.2-6.2-13.5c0.1-2.6,1.2-5,2.4-7.4
	c2.3,1.3,4.5,2,6.5,1.5c2.6-0.8,4.1-2.9,5.2-5.2c1.1-2.4,1.6-5,1.8-7.4c5.5,6.5,7.6,12,7.5,16.6c-0.1,6.5-4,11.8-7.7,15.2
	c-0.8,0.8-0.8,2-0.1,2.8c0.4,0.5,1.1,0.7,1.7,0.6c11.2-1.6,21.5-11.3,21.5-23.7c0-8.5-1.5-16.2-5.9-24.2S40.3,12,29,2
	C28.6,1.6,28,1.4,27.5,1.5z M28.7,7.2c9.6,8.8,15.9,16.1,19.6,22.9c4,7.3,5.4,14.1,5.4,22.2c0,7.8-5.2,14.5-11.8,17.8
	c2.4-3.4,4.3-7.6,4.3-12.6c0.1-6.8-3.2-14.6-12-23.3c-0.8-0.8-2-0.8-2.8,0c-0.5,0.4-0.7,1.1-0.6,1.7c0.2,1.4-0.1,7.2-1.6,10.6
	c-0.8,1.7-1.7,2.7-2.6,3s-2.4,0.1-5-2c-0.9-0.7-2.1-0.6-2.8,0.3c-0.1,0.1-0.2,0.3-0.2,0.4c-1.5,3-3.6,6.5-3.7,10.9
	c-0.1,3,0.8,6.4,3,10.2c-2.5-1.3-4.8-2.9-6.6-4.7c-3.4-3.3-5.5-7.3-5.5-12.2c0-11.1,4.1-15,9.5-20.6C20.1,26.8,25.7,20.1,28.7,7.2z
	 M17.6,81.5c-1.1,0.1-2,1-1.9,2.1s1,2,2.1,1.9h23.1c1.1,0,2-0.9,2-2c0-1.1-0.9-2-2-2c0,0,0,0-0.1,0H17.8
	C17.7,81.5,17.6,81.5,17.6,81.5z M11,89.5c-1.1,0.1-2,1-1.9,2.1s1,2,2.1,1.9h36.2c1.1,0,2-0.9,2-2c0-1.1-0.9-2-2-2c0,0,0,0-0.1,0
	H11.2C11.1,89.5,11.1,89.5,11,89.5z"/>
</svg>
