<?xml version="1.0" encoding="utf-8"?>
<!-- Generator: Adobe Illustrator 24.0.2, SVG Export Plug-In . SVG Version: 6.00 Build 0)  -->
<svg version="1.1" id="Слой_1" xmlns="http://www.w3.org/2000/svg" xmlns:xlink="http://www.w3.org/1999/xlink" x="0px" y="0px"
	 viewBox="0 0 100 84.8" style="enable-background:new 0 0 100 84.8;" xml:space="preserve" width="40px" height="40px">
<style type="text/css">
	.st0{fill:#E4CC37;stroke:#E4CC37;stroke-miterlimit:10;}
</style>
<g>
	<g>
		<path class="st0" d="M97.9,25.8H29.2v-4.2h2.1c0.8,0,1.6-0.5,1.9-1.2c0.3-0.7,0.2-1.6-0.3-2.2L18.2,1.5c-0.8-0.9-2.3-0.9-3.1,0
			L0.5,18.2c-0.5,0.6-0.7,1.5-0.3,2.2c0.3,0.7,1.1,1.2,1.9,1.2h2.1V82c0,1.2,0.9,2.1,2.1,2.1s2.1-0.9,2.1-2.1V80H25V82
			c0,1.2,0.9,2.1,2.1,2.1s2.1-0.9,2.1-2.1V30h12.5v21.2c-2.4,0.9-4.2,3.2-4.2,5.9c0,3.4,2.8,6.3,6.3,6.3c3.4,0,6.3-2.8,6.3-6.3
			c0-2.7-1.7-5-4.2-5.9V30h16.7V47c-2.4,0.9-4.2,3.2-4.2,5.9c0,3.4,2.8,6.3,6.2,6.3c3.4,0,6.3-2.8,6.3-6.3c0-2.7-1.7-5-4.2-5.9V30
			h12.5V82c0,1.2,0.9,2.1,2.1,2.1c1.1,0,2.1-0.9,2.1-2.1V30h8.3v4.6c-1.3,0.5-2.1,1.5-2.1,2.7c0,1.2,0.8,2.2,2.1,2.7V46
			c-1.3,0.5-2.1,1.5-2.1,2.7c0,1.2,0.8,2.2,2.1,2.7v6.1c-1.3,0.5-2.1,1.5-2.1,2.7c0,1.2,0.8,2.2,2.1,2.7v6.1
			c-1.3,0.5-2.1,1.5-2.1,2.7s0.8,2.2,2.1,2.7v3.6c0,1.1,0.9,2.1,2.1,2.1c1.1,0,2.1-0.9,2.1-2.1v-3.6c1.3-0.5,2.1-1.5,2.1-2.7
			s-0.8-2.2-2.1-2.7v-6.1c1.3-0.5,2.1-1.5,2.1-2.7c0-1.2-0.8-2.2-2.1-2.7v-6.1c1.3-0.5,2.1-1.5,2.1-2.7c0-1.2-0.8-2.2-2.1-2.7v-6.1
			c1.3-0.5,2.1-1.5,2.1-2.7c0-1.2-0.8-2.2-2.1-2.7V30h2.1c1.1,0,2.1-0.9,2.1-2.1C100,26.7,99.1,25.8,97.9,25.8z M25,75.8H8.3v-8.3
			H25V75.8z M25,63.3H8.3V55H25V63.3z M25,50.8H8.3v-8.3H25V50.8z M25,38.3H8.3V21.6H25V38.3z M6.7,17.5L16.7,6l10,11.4L6.7,17.5z
			 M43.8,59.1c-1.2,0-2.1-0.9-2.1-2.1c0-1.2,0.9-2.1,2.1-2.1c1.1,0,2.1,0.9,2.1,2.1C45.8,58.2,44.9,59.1,43.8,59.1z M64.6,55
			c-1.1,0-2.1-0.9-2.1-2.1s0.9-2.1,2.1-2.1c1.2,0,2.1,0.9,2.1,2.1S65.7,55,64.6,55z"/>
	</g>
</g>
</svg>
