<?xml version="1.0" encoding="utf-8"?>
<!-- Generator: Adobe Illustrator 24.0.2, SVG Export Plug-In . SVG Version: 6.00 Build 0)  -->
<svg version="1.1" id="Слой_1" xmlns="http://www.w3.org/2000/svg" xmlns:xlink="http://www.w3.org/1999/xlink" x="0px" y="0px"
	 viewBox="0 0 145.9 85.4" style="enable-background:new 0 0 145.9 85.4;" xml:space="preserve" height="40px" width="70px">
<style type="text/css">
	.st0{fill:none;stroke:#84B236;stroke-width:3.3333;stroke-linecap:round;stroke-linejoin:round;stroke-miterlimit:6.6667;}
	.st1{fill:#84B236;}
</style>
<g>
	<g transform="translate(-823.000000, -611.000000)">
		<g transform="translate(824.000000, 612.000000)">
			<polygon class="st0" points="10.7,67.8 24,67.8 24,47.8 10.7,47.8 			"/>
			<polygon class="st0" points="80.7,67.8 87.3,67.8 87.3,47.8 80.7,47.8 			"/>
			<path class="st0" d="M17.3,47.8v20"/>
			<polygon class="st0" points="55.7,9.5 25.7,26.1 25.7,34.5 55.7,17.8 85.7,34.5 85.7,26.1 			"/>
			<polygon class="st0" points="55.7,17.8 30.7,31.7 30.7,82.8 80.7,82.8 80.7,31.7 			"/>
			<polygon class="st0" points="25.7,26.1 55.7,9.5 85.7,26.1 85.7,31.1 94,31.1 90.7,1.1 7.3,1.1 4,31.1 25.7,31.1 			"/>
			<polygon class="st0" points="80.7,82.8 94,82.8 94,41.1 80.7,41.1 			"/>
			<polygon class="st0" points="4,82.8 30.7,82.8 30.7,41.1 4,41.1 			"/>
			<polygon class="st0" points="25.7,34.5 25.7,31.1 0.7,31.1 0.7,41.1 30.7,41.1 30.7,31.7 			"/>
			<polygon class="st0" points="85.7,31.1 85.7,34.5 80.7,31.7 80.7,41.1 97.3,41.1 97.3,31.1 			"/>
			<polygon class="st0" points="45.7,82.8 65.7,82.8 65.7,52.8 45.7,52.8 			"/>
			<path class="st0" d="M60.7,67.8H59"/>
			<path class="st0" d="M4,76.1h26.7"/>
			<path class="st0" d="M80.7,76.1H94"/>
			<path class="st0" d="M65.7,42.8h-20v-3.3c0-5.5,4.5-10,10-10s10,4.5,10,10V42.8L65.7,42.8z"/>
		</g>
	</g>
</g>
<path class="st1" d="M144.2,82h-5.1v-8c1.7,0,2.5,0,3.7-1.1c1.4-1.4,1.9-3.3,1.9-7.1c0-0.6,0-1.3-0.1-2c0.8-1.2,1.2-3,1.2-5.3
	c0-5.9-2.8-16.9-8.2-16.9c-5.3,0-8.1,11-8.1,16.9c0,2.3,0.4,4,1.2,5.3c0,0.7,0,1.3,0,1.9c0,6.2,1.6,8.2,4.9,8.6V82h-17V70.5
	c1.7-0.1,3.6-0.7,5.2-2.2c1.8-1.8,2.5-5.4,2.5-10.7c0-0.9-0.1-2-0.2-3.1c1.2-1.7,1.7-4.1,1.7-7.4c0-8-3.9-23.7-11.1-23.7
	c-7.1,0-11,15.7-11,23.7c0,3.4,0.6,5.8,1.7,7.5c-0.1,1.1,0.2,2.2,0.2,3.1c0,9.7,2.4,11.7,7.5,12.1V82h-10.6c-1,0-1.7,0.7-1.7,1.7
	s0.8,1.7,1.7,1.7h39.4c1,0,1.7-0.7,1.7-1.7S145.2,82,144.2,82z M117.1,58.5c-1,0-1.7,0.8-1.7,1.7V67c-3.4-0.4-4.1-1.9-4.1-9
	c0-1.1-0.1-2.7,0-4c0-0.5-0.2-0.9-0.5-1.3c-0.9-1-1.4-2.9-1.4-5.7c0-8.9,4.2-20.2,7.5-20.2c3.3,0,7.5,11.4,7.5,20.2
	c0,2.8-0.5,4.7-1.4,5.8c-0.3,0.3-0.5,0.8-0.5,1.3c0.1,1.3,0,2.5,0,3.6c0,4.1-0.5,6.8-1.5,7.9c-0.6,0.6-0.6,0.9-2.3,1v-6.5
	C118.8,59.2,118.1,58.5,117.1,58.5z M137.5,65.4c-1,0-1.7,0.8-1.7,1.7v3.3c-1.7-0.3-1.5-1.4-1.5-4.9c0-0.8,0-1.2,0-2
	c0-0.5-0.2-0.9-0.5-1.3c-0.5-0.6-0.8-1.8-0.8-3.6c0-6.5,3-13.4,4.7-13.4c1.6,0,4.7,6.9,4.7,13.4c0,1.8-0.3,3-0.8,3.6
	c-0.3,0.3-0.5,0.8-0.4,1.2c0.1,0.8,0.1,1.5,0.1,2.3c0,3.5-0.5,4.4-0.9,4.8c-0.3,0.3-1.2,0.2-1.2,0.1v-3.5
	C139.2,66.2,138.4,65.4,137.5,65.4z"/>
</svg>
