<?xml version="1.0" encoding="utf-8"?>
<!-- Generator: Adobe Illustrator 24.0.2, SVG Export Plug-In . SVG Version: 6.00 Build 0)  -->
<svg version="1.1" id="Слой_1" xmlns="http://www.w3.org/2000/svg" xmlns:xlink="http://www.w3.org/1999/xlink" x="0px" y="0px"
	 viewBox="0 0 30 30" style="enable-background:new 0 0 30 30;" xml:space="preserve" width="33px" height="33px">
<style type="text/css">
	.st0{fill:#30C1C3;}
	.st1{fill:#FFFFFF;stroke:#FFFFFF;stroke-width:0.2483;stroke-miterlimit:2.4828;}
	.st2{fill:#E4CC37;stroke:#FFFFFF;stroke-width:0.2483;stroke-miterlimit:2.4828;}
	.st3{fill:#FFFFFF;stroke:#FFFFFF;stroke-width:0.2276;stroke-miterlimit:2.2756;}
	.st4{fill:#E18335;stroke:#FFFFFF;stroke-width:0.2276;stroke-miterlimit:2.2756;}
	.st5{fill:#FFFFFF;stroke:#FFFFFF;stroke-width:0.6;stroke-miterlimit:1.5;}
	.st6{fill:#84B236;stroke:#FFFFFF;stroke-width:0.6;stroke-miterlimit:1.5;}
	.st7{fill:#8963BA;}
	.st8{fill:#1E91D6;}
	.st9{fill:#C3423F;}
	.st10{fill:#FFFFFF;}
</style>
<g>
	<circle class="st0" cx="15" cy="15" r="14.5"/>
	<path class="st0" d="M15,1c7.7,0,14,6.3,14,14s-6.3,14-14,14S1,22.7,1,15S7.3,1,15,1 M15,0C6.7,0,0,6.7,0,15s6.7,15,15,15
		s15-6.7,15-15S23.3,0,15,0L15,0z"/>
</g>
<path class="st1" d="M23.4,10.3h-0.9V8.9c0-0.3-0.2-0.5-0.5-0.5c-2.9,0-5.4,0.5-6.9,1.3c-1.5-0.8-4.1-1.3-6.9-1.3
	C8,8.4,7.7,8.6,7.7,8.9v1.5H6.8c-0.3,0-0.5,0.2-0.5,0.5v9.5c0,0.3,0.2,0.5,0.5,0.5h16.6c0.3,0,0.5-0.2,0.5-0.5v-9.5
	C23.9,10.5,23.7,10.3,23.4,10.3z M21.6,18.4c-2.4,0-4.5,0.4-5.9,1v-9c1.2-0.7,3.5-1.1,5.9-1.1L21.6,18.4z M8.7,9.4
	c2.5,0,4.7,0.5,5.9,1.1v9c-1.4-0.6-3.6-1-5.9-1L8.7,9.4z M7.3,11.3h0.4v7.6c0,0.3,0.2,0.5,0.5,0.5c1.4,0,2.8,0.1,4,0.4H7.3V11.3z
	 M23,19.8h-4.9c1.2-0.2,2.6-0.4,4-0.4c0.3,0,0.5-0.2,0.5-0.5v-7.6H23C23,11.3,23,19.8,23,19.8z"/>
<circle class="st2" cx="72" cy="15" r="15"/>
<path class="st3" d="M73.9,17.9L73.6,18c-0.2-0.7-0.9-1.2-1.7-1.2s-1.5,0.5-1.7,1.2l-0.3-0.1c-0.3,0-0.5,0.1-0.5,0.3
	c0,0.3,0.1,0.5,0.3,0.5l0.5,0.1c0.2,0.8,0.9,1.4,1.8,1.4c0.9,0,1.6-0.6,1.8-1.4l0.5-0.1c0.3,0,0.4-0.3,0.3-0.5S74.2,17.9,73.9,17.9z
	 M71.9,19.4c-0.5,0-0.9-0.4-0.9-0.9c0-0.5,0.4-0.9,0.9-0.9s0.9,0.4,0.9,0.9C72.8,19,72.4,19.4,71.9,19.4z M70.1,14.9
	c0.1,0.1,0.2,0.2,0.4,0.2c0.1,0,0.2,0,0.3-0.1c0.2-0.1,0.3-0.4,0.1-0.6c-0.4-0.7-1.1-1-1.9-1s-1.5,0.4-1.9,1
	c-0.1,0.2-0.1,0.5,0.1,0.6s0.5,0.1,0.6-0.1c0.3-0.4,0.7-0.6,1.1-0.6C69.5,14.3,69.9,14.6,70.1,14.9z M74.8,13.4
	c-0.8,0-1.5,0.4-1.9,1c-0.1,0.2-0.1,0.5,0.1,0.6s0.5,0.1,0.6-0.1c0.3-0.4,0.7-0.6,1.1-0.6c0.5,0,0.9,0.2,1.1,0.6
	c0.1,0.1,0.2,0.2,0.4,0.2c0.1,0,0.2,0,0.3-0.1c0.2-0.1,0.3-0.4,0.1-0.6C76.3,13.8,75.6,13.4,74.8,13.4z M79,13.6
	c-0.6-2.1-2.1-3.9-4.1-4.8c-0.2-1.3-1.4-2.4-2.8-2.4c-1.3,0-2.5,0.9-2.7,2.2c-2.3,0.8-4,2.7-4.6,5c-1,0.1-1.8,0.9-1.8,2
	s0.8,1.9,1.8,2c0.9,3.1,3.7,5.4,7.1,5.4c3.4,0,6.3-2.3,7.1-5.4c1-0.1,1.8-0.9,1.8-2C80.8,14.6,80,13.7,79,13.6z M64.6,16.6
	c-0.4-0.2-0.7-0.5-0.7-1c0-0.5,0.3-0.8,0.7-1c0,0.3-0.1,0.6-0.1,1S64.6,16.2,64.6,16.6z M71.9,22.1c-3.6,0-6.5-2.9-6.5-6.5
	c0-2.8,1.8-5.3,4.5-6.2c0.2,0,0.3-0.2,0.3-0.4c0.1-1,0.9-1.7,1.9-1.7c1,0,1.8,0.8,1.9,1.8v0c0,0,0,0,0,0c0,0.8-0.6,1.4-1.4,1.4
	c-0.5,0-0.9-0.3-0.9-0.7c0-0.4,0.3-0.7,0.7-0.7C72.8,9.2,73,9,73,8.7c0-0.3-0.2-0.5-0.5-0.5c-0.9,0-1.6,0.7-1.6,1.6
	c0,0.9,0.8,1.6,1.8,1.6s1.9-0.7,2.2-1.7c2.2,1,3.5,3.3,3.5,5.7C78.4,19.1,75.5,22.1,71.9,22.1z M79.2,16.6c0-0.3,0.1-0.6,0.1-1
	s0-0.7-0.1-1c0.4,0.2,0.7,0.5,0.7,1C79.9,16,79.6,16.4,79.2,16.6z"/>
<circle class="st4" cx="135" cy="15" r="15"/>
<g>
	<path class="st5" d="M134.9,13.9c-0.1,0-0.2,0.1-0.2,0.2v0.3c0,0.8-0.7,1.5-1.5,1.5c-0.8,0-1.5-0.7-1.5-1.5v-0.3
		c0-0.1-0.1-0.2-0.2-0.2c-0.1,0-0.2,0.1-0.2,0.2v0.3c0,1.1,0.9,2,2,2s2-0.9,2-2v-0.3C135.1,14,135,13.9,134.9,13.9z"/>
	<path class="st5" d="M140.6,9.6c0-0.1-0.1-0.2-0.2-0.2h-2.3V9.3c0-0.5-0.2-1-0.6-1.4c-0.4-0.4-0.9-0.6-1.4-0.6c-1.1,0-2,0.9-2,2
		v0.1h-2.3c-0.1,0-0.2,0.1-0.2,0.2l-0.2,2.4h-2.6c-0.1,0-0.2,0-0.2,0.1c0,0,0,0,0,0.1l-0.8,8.4c0,0.1,0,0.1,0.1,0.2
		c0,0,0.1,0.1,0.2,0.1h10.1c0.1,0,0.1,0,0.2-0.1c0,0,0.1-0.1,0.1-0.2l-0.2-2.4h3c0.1,0,0.1,0,0.2-0.1c0,0,0-0.1,0-0.2L140.6,9.6z
		 M134.6,9.3c0-0.8,0.7-1.5,1.5-1.5c0.4,0,0.8,0.2,1.1,0.4c0.3,0.3,0.4,0.7,0.4,1.1v0.1h-3V9.3z M128.3,20.4l0.7-7.9h8.1l0.7,7.9
		H128.3z M138.1,17.8l-0.5-5.6c0-0.1-0.1-0.2-0.2-0.2h-5.5l0.2-2.2h2.1v0.6c0,0.1,0.1,0.2,0.2,0.2c0.1,0,0.2-0.1,0.2-0.2V9.9h3v0.6
		c0,0.1,0.1,0.2,0.2,0.2c0.1,0,0.2-0.1,0.2-0.2V9.9h2.1l0.7,7.9H138.1z"/>
</g>
<circle class="st6" cx="204.5" cy="14.5" r="15"/>
<circle class="st7" cx="274" cy="14" r="15"/>
<circle class="st8" cx="353" cy="14" r="15"/>
<circle class="st9" cx="437" cy="14" r="15"/>
<g>
	<g>
		<path class="st10" d="M278.5,15.3l3-2.6c0.3-0.3,0.4-0.7,0.3-1.2c-0.1-0.4-0.5-0.7-0.9-0.7l-3.9-0.3l-1.5-3.7
			c-0.2-0.4-0.6-0.7-1-0.7l0,0c-0.4,0-0.8,0.3-1,0.7l-1.5,3.7l-3.9,0.3c-0.4,0-0.8,0.3-0.9,0.7s0,0.9,0.3,1.2l3,2.6l-0.9,3.8
			c-0.1,0.4,0.1,0.9,0.4,1.1c0.4,0.3,0.8,0.3,1.2,0.1l3.4-2.1l3.4,2.1c0.2,0.1,0.4,0.1,0.6,0.1c0.2,0,0.4-0.1,0.6-0.2
			c0.4-0.3,0.5-0.7,0.4-1.1L278.5,15.3z M277.7,14.4L277.7,14.4c-0.3,0.3-0.4,0.7-0.4,1.1l0.9,3.7l-3.2-2c-0.2-0.1-0.4-0.1-0.6-0.1
			c-0.2,0-0.4,0.1-0.6,0.1l-3.2,2l0.9-3.7c0.1-0.4,0-0.8-0.4-1.1l-2.9-2.5l3.8-0.3c0.4,0,0.7-0.3,0.9-0.7l1.4-3.5l1.5,3.5
			c0.1,0.4,0.5,0.6,0.9,0.7l3.8,0.3L277.7,14.4z"/>
	</g>
</g>
<path class="st10" d="M362.7,12.4h-1.4v-1.1c0-0.5-0.4-1-1-1h-1.4V9.5c0-0.5-0.4-1-1-1h-1.7c-0.5,0-1,0.4-1,1v2.9h-4.5V9.5
	c0-0.5-0.4-1-1-1h-1.7c-0.5,0-1,0.4-1,1v0.9h-1.4c-0.5,0-1,0.4-1,1v1.1h-1.4c-0.3,0-0.5,0.2-0.5,0.5v2.2c0,0.3,0.2,0.5,0.5,0.5h1.4
	v1.1c0,0.5,0.4,1,1,1h1.4v0.9c0,0.5,0.4,1,1,1h1.7c0.5,0,1-0.4,1-1v-3h4.5v3c0,0.5,0.4,1,1,1h1.7c0.5,0,1-0.4,1-1v-0.9h1.4
	c0.5,0,1-0.4,1-1v-1.1h1.4c0.3,0,0.5-0.2,0.5-0.5v-2.2C363.2,12.6,363,12.4,362.7,12.4z M344.1,14.6v-1.2h0.9v1.2H344.1z
	 M345.9,16.7v-5.3h1.4v5.3H345.9z M349.9,18.5h-1.6v-1.8v-5.4V9.5h1.6V18.5z M350.9,14.6v-1.2h4.5v1.2H350.9z M357.9,18.5h-1.6v-9
	h1.6v1.8v5.4V18.5z M360.3,16.7h-1.4v-5.3h1.4V16.7z M362.2,14.6h-0.9v-1.2h0.9V14.6z"/>
<path class="st10" d="M207.9,12.9l1-0.1c0,0,0,0,0,0c0.7-0.1,1.3-0.4,1.7-1l0.8-1.1c0.7-1,0.9-2.2,0.7-3.3c0-0.2-0.2-0.4-0.3-0.6
	c-0.2-0.2-0.4-0.2-0.6-0.3c-1.2-0.1-2.3,0.3-3.2,1.1l-1,0.9c-0.5,0.5-0.8,1.1-0.8,1.8c0,0,0,0,0,0l0.1,1c0,0.4-0.1,0.8-0.4,1l-8,8.3
	c-0.2,0.2-0.3,0.5-0.3,0.9c0,0.4,0.2,0.7,0.5,1c0.2,0.2,0.6,0.3,0.9,0.3c0,0,0.1,0,0.1,0c0.3,0,0.6-0.2,0.8-0.4l7.2-9
	C207.2,13.1,207.5,12.9,207.9,12.9z M206.6,13.1l-7.2,9c-0.1,0.1-0.3,0.2-0.5,0.2c-0.2,0-0.5-0.1-0.6-0.2c-0.2-0.2-0.3-0.4-0.3-0.6
	c0-0.2,0.1-0.4,0.2-0.5l8-8.3c0.4-0.4,0.6-0.9,0.5-1.4l-0.1-1c0-0.5,0.2-1.1,0.6-1.4l1-0.9c0.8-0.7,1.8-1.1,2.9-1
	c0.1,0,0.2,0.1,0.3,0.1c0.1,0.1,0.2,0.2,0.2,0.3c0.2,1-0.1,2.1-0.7,3l-0.8,1.1c-0.3,0.5-0.8,0.7-1.3,0.8l-1,0.1
	C207.4,12.4,206.9,12.7,206.6,13.1z"/>
<path class="st10" d="M211.7,20.6l-5.4-4.9c-0.1-0.1-0.3-0.1-0.4,0c-0.1,0.1-0.1,0.3,0,0.4l5.4,4.9c0.1,0.1,0.2,0.3,0.2,0.5
	c0,0.2-0.1,0.5-0.2,0.6c-0.2,0.2-0.4,0.3-0.6,0.2c-0.2,0-0.4-0.1-0.5-0.2l-4.8-5.3c-0.1-0.1-0.2-0.1-0.4,0c-0.1,0.1-0.1,0.2,0,0.4
	l4.8,5.3c0.2,0.2,0.5,0.4,0.8,0.4c0,0,0,0,0,0c0.4,0,0.7-0.1,1-0.4c0.3-0.3,0.4-0.6,0.4-1C212.1,21.1,212,20.8,211.7,20.6z"/>
<path class="st10" d="M198.6,12.9c0.4,0.4,0.9,0.6,1.5,0.6c0,0,0,0,0,0l1,0c0.4,0,0.7,0.2,1,0.4l0.4,0.5c0,0.1,0.1,0.1,0.2,0.1
	c0.1,0,0.1,0,0.2-0.1c0.1-0.1,0.1-0.2,0-0.4l-0.4-0.5c-0.4-0.4-0.8-0.6-1.4-0.6l-1,0c-0.4,0-0.8-0.2-1.2-0.5l-2.8-3.4
	c0,0,0-0.1,0-0.1c0,0,0,0,0.1,0s0,0,0.1,0l2.6,2.6c0.3,0.3,0.7,0.3,0.9,0l0.3-0.3v0l0.5-0.5c0,0,0,0,0,0l0,0l0.3-0.3
	c0.3-0.3,0.3-0.7,0-0.9l-2.6-2.6c0,0,0-0.1,0-0.1c0,0,0.1,0,0.1,0l3.4,2.8c0.3,0.3,0.5,0.7,0.5,1.2l0,1c0,0.5,0.2,1,0.6,1.4l0.5,0.4
	c0.1,0.1,0.3,0.1,0.4,0c0.1-0.1,0.1-0.3,0-0.4l-0.5-0.4c-0.3-0.3-0.4-0.6-0.4-1l0-1c0,0,0,0,0,0c0-0.6-0.2-1.1-0.6-1.5c0,0,0,0,0,0
	l-3.4-2.8c-0.2-0.2-0.6-0.2-0.8,0c-0.2,0.2-0.2,0.6,0,0.8l2.6,2.6c0.1,0.1,0.1,0.2,0,0.2l-0.1,0.1l-2.9-2.9c-0.1-0.1-0.3-0.1-0.4,0
	c-0.1,0.1-0.1,0.3,0,0.4l2.9,2.9l-0.2,0.2L197,7.9c-0.1-0.1-0.3-0.1-0.4,0c-0.1,0.1-0.1,0.3,0,0.4l2.9,2.9l-0.1,0.1
	c-0.1,0.1-0.2,0.1-0.2,0l-2.6-2.6c-0.1-0.1-0.3-0.2-0.4-0.2c-0.2,0-0.3,0.1-0.4,0.2c-0.2,0.2-0.2,0.6,0,0.8L198.6,12.9
	C198.6,12.8,198.6,12.8,198.6,12.9z"/>
<path class="st10" d="M444.5,11.4H440V7c0-0.3-0.2-0.5-0.5-0.5h-5c-0.3,0-0.5,0.2-0.5,0.5v4.4h-4.6c-0.3,0-0.5,0.2-0.5,0.5v4.9
	c0,0.3,0.2,0.5,0.5,0.5h4.6v4.4c0,0.3,0.2,0.5,0.5,0.5h5c0.3,0,0.5-0.2,0.5-0.5v-4.4h4.6c0.3,0,0.5-0.2,0.5-0.5v-4.9
	C445,11.6,444.8,11.4,444.5,11.4z M444.1,16.2h-4.6c-0.3,0-0.5,0.2-0.5,0.5v4.4H435v-4.4c0-0.3-0.2-0.5-0.5-0.5h-4.6v-3.9h4.6
	c0.3,0,0.5-0.2,0.5-0.5V7.4h4.1v4.4c0,0.3,0.2,0.5,0.5,0.5h4.6V16.2z"/>
</svg>
