<?xml version="1.0" encoding="utf-8"?>
<!-- Generator: Adobe Illustrator 24.0.2, SVG Export Plug-In . SVG Version: 6.00 Build 0)  -->
<svg version="1.1" id="Слой_1" xmlns="http://www.w3.org/2000/svg" xmlns:xlink="http://www.w3.org/1999/xlink" x="0px" y="0px"
	 viewBox="0 0 30 30" style="enable-background:new 0 0 30 30;" xml:space="preserve" width="33px" height="33px">
<style type="text/css">
	.st0{fill:#30C1C3;}
	.st1{fill:#FFFFFF;stroke:#FFFFFF;stroke-width:0.2483;stroke-miterlimit:2.4828;}
	.st2{fill:#E4CC37;stroke:#E4CC37;stroke-width:0.2483;stroke-miterlimit:2.4828;}
	.st3{fill:#FFFFFF;stroke:#FFFFFF;stroke-width:0.2276;stroke-miterlimit:2.2756;}
	.st4{fill:#E18335;stroke:#E18335;stroke-width:0.2276;stroke-miterlimit:2.2756;}
	.st5{fill:#FFFFFF;stroke:#FFFFFF;stroke-width:0.6;stroke-miterlimit:1.5;}
	.st6{fill:#84B236;stroke:#FFFFFF;stroke-width:0.6;stroke-miterlimit:1.5;}
	.st7{fill:#8963BA;}
	.st8{fill:#1E91D6;}
	.st9{fill:#C3423F;}
	.st10{fill:#FFFFFF;}
</style>
<g>
	<circle class="st0" cx="-105" cy="15" r="14.5"/>
	<path class="st0" d="M-105,1c7.7,0,14,6.3,14,14s-6.3,14-14,14s-14-6.3-14-14S-112.7,1-105,1 M-105,0c-8.3,0-15,6.7-15,15
		s6.7,15,15,15s15-6.7,15-15S-96.7,0-105,0L-105,0z"/>
</g>
<path class="st1" d="M-96.6,10.3h-0.9V8.9c0-0.3-0.2-0.5-0.5-0.5c-2.9,0-5.4,0.5-6.9,1.3c-1.5-0.8-4.1-1.3-6.9-1.3
	c-0.3,0-0.5,0.2-0.5,0.5v1.5h-0.9c-0.3,0-0.5,0.2-0.5,0.5v9.5c0,0.3,0.2,0.5,0.5,0.5h16.6c0.3,0,0.5-0.2,0.5-0.5v-9.5
	C-96.1,10.5-96.3,10.3-96.6,10.3z M-98.4,18.4c-2.4,0-4.5,0.4-5.9,1v-9c1.2-0.7,3.5-1.1,5.9-1.1V18.4z M-111.3,9.4
	c2.5,0,4.7,0.5,5.9,1.1v9c-1.4-0.6-3.6-1-5.9-1V9.4z M-112.7,11.3h0.4v7.6c0,0.3,0.2,0.5,0.5,0.5c1.4,0,2.8,0.1,4,0.4h-4.9V11.3z
	 M-97,19.8h-4.9c1.2-0.2,2.6-0.4,4-0.4c0.3,0,0.5-0.2,0.5-0.5v-7.6h0.4C-97,11.3-97,19.8-97,19.8z"/>
<circle class="st2" cx="-48" cy="15" r="15"/>
<path class="st3" d="M-46.1,17.9l-0.3,0.1c-0.2-0.7-0.9-1.2-1.7-1.2s-1.5,0.5-1.7,1.2l-0.3-0.1c-0.3,0-0.5,0.1-0.5,0.3
	c0,0.3,0.1,0.5,0.3,0.5l0.5,0.1c0.2,0.8,0.9,1.4,1.8,1.4c0.9,0,1.6-0.6,1.8-1.4l0.5-0.1c0.3,0,0.4-0.3,0.3-0.5S-45.8,17.9-46.1,17.9
	z M-48.1,19.4c-0.5,0-0.9-0.4-0.9-0.9c0-0.5,0.4-0.9,0.9-0.9c0.5,0,0.9,0.4,0.9,0.9C-47.2,19-47.6,19.4-48.1,19.4z M-49.9,14.9
	c0.1,0.1,0.2,0.2,0.4,0.2c0.1,0,0.2,0,0.3-0.1c0.2-0.1,0.3-0.4,0.1-0.6c-0.4-0.7-1.1-1-1.9-1c-0.8,0-1.5,0.4-1.9,1
	c-0.1,0.2-0.1,0.5,0.1,0.6c0.2,0.1,0.5,0.1,0.6-0.1c0.3-0.4,0.7-0.6,1.1-0.6S-50.1,14.6-49.9,14.9z M-45.2,13.4
	c-0.8,0-1.5,0.4-1.9,1c-0.1,0.2-0.1,0.5,0.1,0.6c0.2,0.1,0.5,0.1,0.6-0.1c0.3-0.4,0.7-0.6,1.1-0.6s0.9,0.2,1.1,0.6
	c0.1,0.1,0.2,0.2,0.4,0.2c0.1,0,0.2,0,0.3-0.1c0.2-0.1,0.3-0.4,0.1-0.6C-43.7,13.8-44.4,13.4-45.2,13.4z M-41,13.6
	c-0.6-2.1-2.1-3.9-4.1-4.8c-0.2-1.3-1.4-2.4-2.8-2.4c-1.3,0-2.5,0.9-2.7,2.2c-2.3,0.8-4,2.7-4.6,5c-1,0.1-1.8,0.9-1.8,2
	s0.8,1.9,1.8,2c0.9,3.1,3.7,5.4,7.1,5.4s6.3-2.3,7.1-5.4c1-0.1,1.8-0.9,1.8-2C-39.2,14.6-40,13.7-41,13.6z M-55.4,16.6
	c-0.4-0.2-0.7-0.5-0.7-1c0-0.5,0.3-0.8,0.7-1c0,0.3-0.1,0.6-0.1,1S-55.4,16.2-55.4,16.6z M-48.1,22.1c-3.6,0-6.5-2.9-6.5-6.5
	c0-2.8,1.8-5.3,4.5-6.2c0.2,0,0.3-0.2,0.3-0.4c0.1-1,0.9-1.7,1.9-1.7c1,0,1.8,0.8,1.9,1.8v0c0,0,0,0,0,0c0,0.8-0.6,1.4-1.4,1.4
	c-0.5,0-0.9-0.3-0.9-0.7c0-0.4,0.3-0.7,0.7-0.7c0.3,0,0.5-0.2,0.5-0.5c0-0.3-0.2-0.5-0.5-0.5c-0.9,0-1.6,0.7-1.6,1.6
	c0,0.9,0.8,1.6,1.8,1.6c1,0,1.9-0.7,2.2-1.7c2.2,1,3.5,3.3,3.5,5.7C-41.6,19.1-44.5,22.1-48.1,22.1z M-40.8,16.6
	c0-0.3,0.1-0.6,0.1-1s0-0.7-0.1-1c0.4,0.2,0.7,0.5,0.7,1C-40.1,16-40.4,16.4-40.8,16.6z"/>
<circle class="st4" cx="15" cy="15" r="15"/>
<g>
	<path class="st5" d="M14.9,13.9c-0.1,0-0.2,0.1-0.2,0.2v0.3c0,0.8-0.7,1.5-1.5,1.5s-1.5-0.7-1.5-1.5v-0.3c0-0.1-0.1-0.2-0.2-0.2
		c-0.1,0-0.2,0.1-0.2,0.2v0.3c0,1.1,0.9,2,2,2s2-0.9,2-2v-0.3C15.1,14,15,13.9,14.9,13.9z"/>
	<path class="st5" d="M20.6,9.6c0-0.1-0.1-0.2-0.2-0.2h-2.3V9.3c0-0.5-0.2-1-0.6-1.4c-0.4-0.4-0.9-0.6-1.4-0.6c-1.1,0-2,0.9-2,2v0.1
		h-2.3c-0.1,0-0.2,0.1-0.2,0.2L11.4,12H8.8c-0.1,0-0.2,0-0.2,0.1c0,0,0,0,0,0.1l-0.8,8.4c0,0.1,0,0.1,0.1,0.2c0,0,0.1,0.1,0.2,0.1
		h10.1c0.1,0,0.1,0,0.2-0.1c0,0,0.1-0.1,0.1-0.2l-0.2-2.4h3c0.1,0,0.1,0,0.2-0.1c0,0,0-0.1,0-0.2L20.6,9.6z M14.6,9.3
		c0-0.8,0.7-1.5,1.5-1.5c0.4,0,0.8,0.2,1.1,0.4c0.3,0.3,0.5,0.7,0.5,1.1v0.1h-3V9.3z M8.3,20.4L9,12.5h8.1l0.7,7.9H8.3z M18.1,17.8
		l-0.5-5.6c0-0.1-0.1-0.2-0.2-0.2h-5.5l0.2-2.2h2.1v0.6c0,0.1,0.1,0.2,0.2,0.2s0.2-0.1,0.2-0.2V9.9h3v0.6c0,0.1,0.1,0.2,0.2,0.2
		c0.1,0,0.2-0.1,0.2-0.2V9.9h2.1l0.7,7.9H18.1z"/>
</g>
<circle class="st6" cx="84.5" cy="14.5" r="15"/>
<circle class="st7" cx="154" cy="14" r="15"/>
<circle class="st8" cx="233" cy="14" r="15"/>
<circle class="st9" cx="317" cy="14" r="15"/>
<g>
	<g>
		<path class="st10" d="M158.5,15.3l3-2.6c0.3-0.3,0.4-0.7,0.3-1.2c-0.1-0.4-0.5-0.7-0.9-0.7l-3.9-0.3l-1.5-3.7
			c-0.2-0.4-0.6-0.7-1-0.7l0,0c-0.4,0-0.8,0.3-1,0.7l-1.5,3.7l-3.9,0.3c-0.4,0-0.8,0.3-0.9,0.7s0,0.9,0.3,1.2l3,2.6l-0.9,3.8
			c-0.1,0.4,0.1,0.9,0.4,1.1c0.4,0.3,0.8,0.3,1.2,0.1l3.4-2.1l3.4,2.1c0.2,0.1,0.4,0.1,0.6,0.1c0.2,0,0.4-0.1,0.6-0.2
			c0.4-0.3,0.5-0.7,0.4-1.1L158.5,15.3z M157.7,14.4L157.7,14.4c-0.3,0.3-0.4,0.7-0.4,1.1l0.9,3.7l-3.2-2c-0.2-0.1-0.4-0.1-0.6-0.1
			c-0.2,0-0.4,0.1-0.6,0.1l-3.2,2l0.9-3.7c0.1-0.4,0-0.8-0.4-1.1l-2.9-2.5l3.8-0.3c0.4,0,0.7-0.3,0.9-0.7l1.4-3.5l1.5,3.5
			c0.1,0.4,0.5,0.6,0.9,0.7l3.8,0.3L157.7,14.4z"/>
	</g>
</g>
<path class="st10" d="M242.7,12.4h-1.4v-1.1c0-0.5-0.4-1-1-1h-1.4V9.5c0-0.5-0.4-1-1-1h-1.7c-0.5,0-1,0.4-1,1v2.9h-4.5V9.5
	c0-0.5-0.4-1-1-1h-1.7c-0.5,0-1,0.4-1,1v0.9h-1.4c-0.5,0-1,0.4-1,1v1.1h-1.4c-0.3,0-0.5,0.2-0.5,0.5v2.2c0,0.3,0.2,0.5,0.5,0.5h1.4
	v1.1c0,0.5,0.4,1,1,1h1.4v0.9c0,0.5,0.4,1,1,1h1.7c0.5,0,1-0.4,1-1v-3h4.5v3c0,0.5,0.4,1,1,1h1.7c0.5,0,1-0.4,1-1v-0.9h1.4
	c0.5,0,1-0.4,1-1v-1.1h1.4c0.3,0,0.5-0.2,0.5-0.5v-2.2C243.2,12.6,243,12.4,242.7,12.4z M224.1,14.6v-1.2h0.9v1.2H224.1z
	 M225.9,16.7v-5.3h1.4v5.3H225.9z M229.9,18.5h-1.6v-1.8v-5.4V9.5h1.6V18.5z M230.9,14.6v-1.2h4.5v1.2H230.9z M237.9,18.5h-1.6v-9
	h1.6v1.8v5.4V18.5z M240.3,16.7h-1.4v-5.3h1.4V16.7z M242.2,14.6h-0.9v-1.2h0.9V14.6z"/>
<path class="st10" d="M87.9,12.9l1-0.1c0,0,0,0,0,0c0.7-0.1,1.3-0.4,1.7-1l0.8-1.1c0.7-1,0.9-2.2,0.7-3.3c0-0.2-0.2-0.4-0.3-0.6
	c-0.2-0.2-0.4-0.2-0.6-0.3c-1.2-0.1-2.3,0.3-3.2,1.1l-1,0.9c-0.5,0.5-0.8,1.1-0.8,1.8c0,0,0,0,0,0l0.1,1c0,0.4-0.1,0.8-0.4,1l-8,8.3
	c-0.2,0.2-0.3,0.5-0.3,0.9c0,0.4,0.2,0.7,0.5,1c0.2,0.2,0.6,0.3,0.9,0.3c0,0,0.1,0,0.1,0c0.3,0,0.6-0.2,0.8-0.4l7.2-9
	C87.2,13.1,87.5,12.9,87.9,12.9z M86.6,13.1l-7.2,9c-0.1,0.1-0.3,0.2-0.5,0.2c-0.2,0-0.5-0.1-0.6-0.2c-0.2-0.2-0.3-0.4-0.3-0.6
	c0-0.2,0.1-0.4,0.2-0.5l8-8.3c0.4-0.4,0.6-0.9,0.5-1.4l-0.1-1c0-0.5,0.2-1.1,0.6-1.4l1-0.9C89,7.3,90.1,7,91.1,7
	c0.1,0,0.2,0.1,0.3,0.1c0.1,0.1,0.2,0.2,0.2,0.3c0.2,1-0.1,2.1-0.7,3l-0.8,1.1c-0.3,0.5-0.8,0.7-1.3,0.8l-1,0.1
	C87.4,12.4,86.9,12.7,86.6,13.1z"/>
<path class="st10" d="M91.7,20.6l-5.4-4.9c-0.1-0.1-0.3-0.1-0.4,0c-0.1,0.1-0.1,0.3,0,0.4l5.4,4.9c0.1,0.1,0.2,0.3,0.2,0.5
	c0,0.2-0.1,0.5-0.2,0.6c-0.2,0.2-0.4,0.3-0.6,0.2c-0.2,0-0.4-0.1-0.5-0.2l-4.8-5.3c-0.1-0.1-0.2-0.1-0.4,0c-0.1,0.1-0.1,0.2,0,0.4
	l4.8,5.3c0.2,0.2,0.5,0.4,0.8,0.4c0,0,0,0,0,0c0.4,0,0.7-0.1,1-0.4c0.3-0.3,0.4-0.6,0.4-1C92.1,21.1,92,20.8,91.7,20.6z"/>
<path class="st10" d="M78.6,12.9c0.4,0.4,0.9,0.6,1.5,0.6c0,0,0,0,0,0l1,0c0.4,0,0.7,0.2,1,0.4l0.4,0.5c0,0.1,0.1,0.1,0.2,0.1
	c0.1,0,0.1,0,0.2-0.1c0.1-0.1,0.1-0.2,0-0.4l-0.4-0.5c-0.4-0.4-0.8-0.6-1.4-0.6l-1,0c-0.4,0-0.8-0.2-1.2-0.5l-2.8-3.4
	c0,0,0-0.1,0-0.1c0,0,0,0,0.1,0c0,0,0,0,0.1,0l2.6,2.6c0.3,0.3,0.7,0.3,0.9,0l0.3-0.3v0l0.5-0.5c0,0,0,0,0,0l0,0l0.3-0.3
	c0.3-0.3,0.3-0.7,0-0.9l-2.6-2.6c0,0,0-0.1,0-0.1c0,0,0.1,0,0.1,0l3.4,2.8c0.3,0.3,0.5,0.7,0.5,1.2l0,1c0,0.5,0.2,1,0.6,1.4l0.5,0.4
	c0.1,0.1,0.3,0.1,0.4,0c0.1-0.1,0.1-0.3,0-0.4l-0.5-0.4c-0.3-0.3-0.4-0.6-0.4-1l0-1c0,0,0,0,0,0c0-0.6-0.2-1.1-0.6-1.5c0,0,0,0,0,0
	l-3.4-2.8c-0.2-0.2-0.6-0.2-0.8,0c-0.2,0.2-0.2,0.6,0,0.8l2.6,2.6c0.1,0.1,0.1,0.2,0,0.2l-0.1,0.1l-2.9-2.9c-0.1-0.1-0.3-0.1-0.4,0
	c-0.1,0.1-0.1,0.3,0,0.4l2.9,2.9l-0.2,0.2L77,7.9c-0.1-0.1-0.3-0.1-0.4,0c-0.1,0.1-0.1,0.3,0,0.4l2.9,2.9l-0.1,0.1
	c-0.1,0.1-0.2,0.1-0.2,0l-2.6-2.6c-0.1-0.1-0.3-0.2-0.4-0.2c-0.2,0-0.3,0.1-0.4,0.2c-0.2,0.2-0.2,0.6,0,0.8L78.6,12.9
	C78.6,12.8,78.6,12.8,78.6,12.9z"/>
<path class="st10" d="M324.5,11.4H320V7c0-0.3-0.2-0.5-0.5-0.5h-5c-0.3,0-0.5,0.2-0.5,0.5v4.4h-4.6c-0.3,0-0.5,0.2-0.5,0.5v4.9
	c0,0.3,0.2,0.5,0.5,0.5h4.6v4.4c0,0.3,0.2,0.5,0.5,0.5h5c0.3,0,0.5-0.2,0.5-0.5v-4.4h4.6c0.3,0,0.5-0.2,0.5-0.5v-4.9
	C325,11.6,324.8,11.4,324.5,11.4z M324.1,16.2h-4.6c-0.3,0-0.5,0.2-0.5,0.5v4.4H315v-4.4c0-0.3-0.2-0.5-0.5-0.5h-4.6v-3.9h4.6
	c0.3,0,0.5-0.2,0.5-0.5V7.4h4.1v4.4c0,0.3,0.2,0.5,0.5,0.5h4.6V16.2z"/>
</svg>
