<?xml version="1.0" encoding="utf-8"?>
<!-- Generator: Adobe Illustrator 24.0.2, SVG Export Plug-In . SVG Version: 6.00 Build 0)  -->
<svg version="1.1" id="Слой_1" xmlns="http://www.w3.org/2000/svg" xmlns:xlink="http://www.w3.org/1999/xlink" x="0px" y="0px"
	 viewBox="0 0 31 31" style="enable-background:new 0 0 31 31;" xml:space="preserve" width="33px" height="33px">
<style type="text/css">
	.st0{fill:#30C1C3;}
	.st1{fill:#FFFFFF;stroke:#FFFFFF;stroke-width:0.2483;stroke-miterlimit:2.4828;}
	.st2{fill:#E4CC37;stroke:#E4CC37;stroke-width:0.2483;stroke-miterlimit:2.4828;}
	.st3{fill:#FFFFFF;stroke:#FFFFFF;stroke-width:0.2276;stroke-miterlimit:2.2756;}
	.st4{fill:#E18335;stroke:#E18335;stroke-width:0.2276;stroke-miterlimit:2.2756;}
	.st5{fill:#FFFFFF;stroke:#FFFFFF;stroke-width:0.6;stroke-miterlimit:1.5;}
	.st6{fill:#84B236;stroke:#84B236;stroke-width:0.6;stroke-miterlimit:1.5;}
	.st7{fill:#8963BA;stroke:#8963BA;stroke-miterlimit:1.5;}
	.st8{fill:#1E91D6;}
	.st9{fill:#C3423F;}
	.st10{fill:#FFFFFF;}
</style>
<g>
	<circle class="st0" cx="-322.5" cy="16.5" r="14.5"/>
	<path class="st0" d="M-322.5,2.5c7.7,0,14,6.3,14,14s-6.3,14-14,14s-14-6.3-14-14S-330.2,2.5-322.5,2.5 M-322.5,1.5
		c-8.3,0-15,6.7-15,15s6.7,15,15,15s15-6.7,15-15S-314.2,1.5-322.5,1.5L-322.5,1.5z"/>
</g>
<path class="st1" d="M-314.1,11.8h-0.9v-1.5c0-0.3-0.2-0.5-0.5-0.5c-2.9,0-5.4,0.5-6.9,1.3c-1.5-0.8-4.1-1.3-6.9-1.3
	c-0.3,0-0.5,0.2-0.5,0.5v1.5h-0.9c-0.3,0-0.5,0.2-0.5,0.5v9.5c0,0.3,0.2,0.5,0.5,0.5h16.6c0.3,0,0.5-0.2,0.5-0.5v-9.5
	C-313.6,12-313.8,11.8-314.1,11.8z M-315.9,19.9c-2.4,0-4.5,0.4-5.9,1v-9c1.2-0.7,3.5-1.1,5.9-1.1V19.9z M-328.8,10.9
	c2.5,0,4.7,0.5,5.9,1.1v9c-1.4-0.6-3.6-1-5.9-1V10.9z M-330.2,12.8h0.4v7.6c0,0.3,0.2,0.5,0.5,0.5c1.4,0,2.8,0.1,4,0.4h-4.9V12.8z
	 M-314.5,21.3h-4.9c1.2-0.2,2.6-0.4,4-0.4c0.3,0,0.5-0.2,0.5-0.5v-7.6h0.4C-314.5,12.8-314.5,21.3-314.5,21.3z"/>
<circle class="st2" cx="-265.5" cy="16.5" r="15"/>
<path class="st3" d="M-263.6,19.4l-0.3,0.1c-0.2-0.7-0.9-1.2-1.7-1.2s-1.5,0.5-1.7,1.2l-0.3-0.1c-0.3,0-0.5,0.1-0.5,0.3
	c0,0.3,0.1,0.5,0.3,0.5l0.5,0.1c0.2,0.8,0.9,1.4,1.8,1.4s1.6-0.6,1.8-1.4l0.5-0.1c0.3,0,0.4-0.3,0.3-0.5S-263.3,19.4-263.6,19.4z
	 M-265.6,20.9c-0.5,0-0.9-0.4-0.9-0.9c0-0.5,0.4-0.9,0.9-0.9s0.9,0.4,0.9,0.9C-264.7,20.5-265.1,20.9-265.6,20.9z M-267.4,16.4
	c0.1,0.1,0.2,0.2,0.4,0.2c0.1,0,0.2,0,0.3-0.1c0.2-0.1,0.3-0.4,0.1-0.6c-0.4-0.7-1.1-1-1.9-1c-0.8,0-1.5,0.4-1.9,1
	c-0.1,0.2-0.1,0.5,0.1,0.6s0.5,0.1,0.6-0.1c0.3-0.4,0.7-0.6,1.1-0.6C-268,15.8-267.6,16.1-267.4,16.4z M-262.7,14.9
	c-0.8,0-1.5,0.4-1.9,1c-0.1,0.2-0.1,0.5,0.1,0.6s0.5,0.1,0.6-0.1c0.3-0.4,0.7-0.6,1.1-0.6c0.5,0,0.9,0.2,1.1,0.6
	c0.1,0.1,0.2,0.2,0.4,0.2c0.1,0,0.2,0,0.3-0.1c0.2-0.1,0.3-0.4,0.1-0.6C-261.2,15.3-261.9,14.9-262.7,14.9z M-258.5,15.1
	c-0.6-2.1-2.1-3.9-4.1-4.8c-0.2-1.3-1.4-2.4-2.8-2.4c-1.3,0-2.5,0.9-2.7,2.2c-2.3,0.8-4,2.7-4.6,5c-1,0.1-1.8,0.9-1.8,2
	c0,1,0.8,1.9,1.8,2c0.9,3.1,3.7,5.4,7.1,5.4s6.3-2.3,7.1-5.4c1-0.1,1.8-0.9,1.8-2C-256.7,16.1-257.5,15.2-258.5,15.1z M-272.9,18.1
	c-0.4-0.2-0.7-0.5-0.7-1s0.3-0.8,0.7-1c0,0.3-0.1,0.6-0.1,1C-273,17.4-272.9,17.7-272.9,18.1z M-265.6,23.6c-3.6,0-6.5-2.9-6.5-6.5
	c0-2.8,1.8-5.3,4.5-6.2c0.2,0,0.3-0.2,0.3-0.4c0.1-1,0.9-1.7,1.9-1.7c1,0,1.8,0.8,1.9,1.8v0c0,0,0,0,0,0c0,0.8-0.6,1.4-1.4,1.4
	c-0.5,0-0.9-0.3-0.9-0.7c0-0.4,0.3-0.7,0.7-0.7c0.3,0,0.5-0.2,0.5-0.5c0-0.3-0.2-0.5-0.5-0.5c-0.9,0-1.6,0.7-1.6,1.6
	c0,0.9,0.8,1.6,1.8,1.6s1.9-0.7,2.2-1.7c2.2,1,3.5,3.3,3.5,5.7C-259.1,20.6-262,23.6-265.6,23.6z M-258.3,18.1c0-0.3,0.1-0.6,0.1-1
	c0-0.3,0-0.7-0.1-1c0.4,0.2,0.7,0.5,0.7,1S-257.9,17.9-258.3,18.1z"/>
<circle class="st4" cx="-202.5" cy="16.5" r="15"/>
<g>
	<path class="st5" d="M-202.6,15.4c-0.1,0-0.2,0.1-0.2,0.2V16c0,0.8-0.7,1.5-1.5,1.5c-0.8,0-1.5-0.7-1.5-1.5v-0.3
		c0-0.1-0.1-0.2-0.2-0.2c-0.1,0-0.2,0.1-0.2,0.2V16c0,1.1,0.9,2,2,2s2-0.9,2-2v-0.3C-202.4,15.5-202.5,15.4-202.6,15.4z"/>
	<path class="st5" d="M-196.9,11.1c0-0.1-0.1-0.2-0.2-0.2h-2.3v-0.1c0-0.5-0.2-1-0.6-1.4c-0.4-0.4-0.9-0.6-1.4-0.6c-1.1,0-2,0.9-2,2
		v0.1h-2.3c-0.1,0-0.2,0.1-0.2,0.2l-0.2,2.4h-2.6c-0.1,0-0.2,0-0.2,0.1c0,0,0,0,0,0.1l-0.8,8.4c0,0.1,0,0.1,0.1,0.2
		c0,0,0.1,0.1,0.2,0.1h10.1c0.1,0,0.1,0,0.2-0.1c0,0,0.1-0.1,0.1-0.2l-0.2-2.4h3c0.1,0,0.1,0,0.2-0.1c0,0,0-0.1,0-0.2L-196.9,11.1z
		 M-202.9,10.8c0-0.8,0.7-1.5,1.5-1.5c0.4,0,0.8,0.2,1.1,0.4c0.3,0.3,0.4,0.7,0.4,1.1v0.1h-3V10.8z M-209.2,21.9l0.7-7.9h8.1
		l0.7,7.9H-209.2z M-199.4,19.3l-0.5-5.6c0-0.1-0.1-0.2-0.2-0.2h-5.5l0.2-2.2h2.1V12c0,0.1,0.1,0.2,0.2,0.2c0.1,0,0.2-0.1,0.2-0.2
		v-0.6h3V12c0,0.1,0.1,0.2,0.2,0.2c0.1,0,0.2-0.1,0.2-0.2v-0.6h2.1l0.7,7.9H-199.4z"/>
</g>
<circle class="st6" cx="-133" cy="16" r="15"/>
<circle class="st7" cx="-63.5" cy="15.5" r="15"/>
<circle class="st8" cx="15.5" cy="15.5" r="15"/>
<circle class="st9" cx="99.5" cy="15.5" r="15"/>
<g>
	<g>
		<path class="st10" d="M-59,16.8l3-2.6c0.3-0.3,0.4-0.7,0.3-1.2c-0.1-0.4-0.5-0.7-0.9-0.7l-3.9-0.3l-1.5-3.7
			c-0.2-0.4-0.6-0.7-1-0.7l0,0c-0.4,0-0.8,0.3-1,0.7l-1.5,3.7l-3.9,0.3c-0.4,0-0.8,0.3-0.9,0.7c-0.1,0.4,0,0.9,0.3,1.2l3,2.6
			l-0.9,3.8c-0.1,0.4,0.1,0.9,0.4,1.1c0.4,0.3,0.8,0.3,1.2,0.1l3.4-2.1l3.4,2.1c0.2,0.1,0.4,0.1,0.6,0.1c0.2,0,0.4-0.1,0.6-0.2
			c0.4-0.3,0.5-0.7,0.4-1.1L-59,16.8z M-59.8,15.9L-59.8,15.9c-0.3,0.3-0.4,0.7-0.4,1.1l0.9,3.7l-3.2-2c-0.2-0.1-0.4-0.1-0.6-0.1
			s-0.4,0.1-0.6,0.1l-3.2,2l0.9-3.7c0.1-0.4,0-0.8-0.4-1.1l-2.9-2.5l3.8-0.3c0.4,0,0.7-0.3,0.9-0.7l1.4-3.5l1.5,3.5
			c0.1,0.4,0.5,0.6,0.9,0.7l3.8,0.3L-59.8,15.9z"/>
	</g>
</g>
<path class="st10" d="M25.2,13.9h-1.4v-1.1c0-0.5-0.4-1-1-1h-1.4V11c0-0.5-0.4-1-1-1h-1.7c-0.5,0-1,0.4-1,1v2.9h-4.5V11
	c0-0.5-0.4-1-1-1h-1.7c-0.5,0-1,0.4-1,1v0.9H8.4c-0.5,0-1,0.4-1,1v1.1H6.1c-0.3,0-0.5,0.2-0.5,0.5v2.2c0,0.3,0.2,0.5,0.5,0.5h1.4
	v1.1c0,0.5,0.4,1,1,1h1.4V20c0,0.5,0.4,1,1,1h1.7c0.5,0,1-0.4,1-1v-3h4.5v3c0,0.5,0.4,1,1,1h1.7c0.5,0,1-0.4,1-1v-0.9h1.4
	c0.5,0,1-0.4,1-1v-1.1h1.4c0.3,0,0.5-0.2,0.5-0.5v-2.2C25.7,14.1,25.5,13.9,25.2,13.9z M6.6,16.1v-1.2h0.9v1.2H6.6z M8.4,18.2v-5.3
	h1.4v5.3H8.4z M12.4,20h-1.6v-1.8v-5.4V11h1.6V20z M13.4,16.1v-1.2h4.5v1.2H13.4z M20.4,20h-1.6v-9h1.6v1.8v5.4V20z M22.8,18.2h-1.4
	v-5.3h1.4V18.2z M24.7,16.1h-0.9v-1.2h0.9V16.1z"/>
<path class="st10" d="M-129.6,14.4l1-0.1c0,0,0,0,0,0c0.7-0.1,1.3-0.4,1.7-1l0.8-1.1c0.7-1,0.9-2.2,0.7-3.3c0-0.2-0.2-0.4-0.3-0.6
	c-0.2-0.2-0.4-0.2-0.6-0.3c-1.2-0.1-2.3,0.3-3.2,1.1l-1,0.9c-0.5,0.5-0.8,1.1-0.8,1.8c0,0,0,0,0,0l0.1,1c0,0.4-0.1,0.8-0.4,1l-8,8.3
	c-0.2,0.2-0.3,0.5-0.3,0.9c0,0.4,0.2,0.7,0.5,1c0.2,0.2,0.6,0.3,0.9,0.3c0,0,0.1,0,0.1,0c0.3,0,0.6-0.2,0.8-0.4l7.2-9
	C-130.3,14.6-130,14.4-129.6,14.4z M-130.9,14.6l-7.2,9c-0.1,0.1-0.3,0.2-0.5,0.2c-0.2,0-0.5-0.1-0.6-0.2c-0.2-0.2-0.3-0.4-0.3-0.6
	c0-0.2,0.1-0.4,0.2-0.5l8-8.3c0.4-0.4,0.6-0.9,0.5-1.4l-0.1-1c0-0.5,0.2-1.1,0.6-1.4l1-0.9c0.8-0.7,1.8-1.1,2.9-1
	c0.1,0,0.2,0.1,0.3,0.1c0.1,0.1,0.2,0.2,0.2,0.3c0.2,1-0.1,2.1-0.7,3l-0.8,1.1c-0.3,0.5-0.8,0.7-1.3,0.8l-1,0.1
	C-130.1,13.9-130.6,14.2-130.9,14.6z"/>
<path class="st10" d="M-125.8,22.1l-5.4-4.9c-0.1-0.1-0.3-0.1-0.4,0c-0.1,0.1-0.1,0.3,0,0.4l5.4,4.9c0.1,0.1,0.2,0.3,0.2,0.5
	c0,0.2-0.1,0.5-0.2,0.6c-0.2,0.2-0.4,0.3-0.6,0.2c-0.2,0-0.4-0.1-0.5-0.2l-4.8-5.3c-0.1-0.1-0.2-0.1-0.4,0c-0.1,0.1-0.1,0.2,0,0.4
	l4.8,5.3c0.2,0.2,0.5,0.4,0.8,0.4c0,0,0,0,0,0c0.4,0,0.7-0.1,1-0.4c0.3-0.3,0.4-0.6,0.4-1C-125.4,22.6-125.5,22.3-125.8,22.1z"/>
<path class="st10" d="M-138.9,14.4c0.4,0.4,0.9,0.6,1.5,0.6c0,0,0,0,0,0l1,0c0.4,0,0.7,0.2,1,0.4l0.4,0.5c0,0.1,0.1,0.1,0.2,0.1
	c0.1,0,0.1,0,0.2-0.1c0.1-0.1,0.1-0.2,0-0.4l-0.4-0.5c-0.4-0.4-0.8-0.6-1.4-0.6l-1,0c-0.4,0-0.8-0.2-1.2-0.5l-2.8-3.4
	c0,0,0-0.1,0-0.1c0,0,0,0,0.1,0s0,0,0.1,0l2.6,2.6c0.3,0.3,0.7,0.3,0.9,0l0.3-0.3v0l0.5-0.5c0,0,0,0,0,0l0,0l0.3-0.3
	c0.3-0.3,0.3-0.7,0-0.9l-2.6-2.6c0,0,0-0.1,0-0.1c0,0,0.1,0,0.1,0l3.4,2.8c0.3,0.3,0.5,0.7,0.5,1.2l0,1c0,0.5,0.2,1,0.6,1.4l0.5,0.4
	c0.1,0.1,0.3,0.1,0.4,0c0.1-0.1,0.1-0.3,0-0.4l-0.5-0.4c-0.3-0.3-0.4-0.6-0.4-1l0-1c0,0,0,0,0,0c0-0.6-0.2-1.1-0.6-1.5c0,0,0,0,0,0
	l-3.4-2.8c-0.2-0.2-0.6-0.2-0.8,0c-0.2,0.2-0.2,0.6,0,0.8l2.6,2.6c0.1,0.1,0.1,0.2,0,0.2l-0.1,0.1l-2.9-2.9c-0.1-0.1-0.3-0.1-0.4,0
	c-0.1,0.1-0.1,0.3,0,0.4l2.9,2.9l-0.2,0.2l-2.9-2.9c-0.1-0.1-0.3-0.1-0.4,0c-0.1,0.1-0.1,0.3,0,0.4l2.9,2.9l-0.1,0.1
	c-0.1,0.1-0.2,0.1-0.2,0l-2.6-2.6c-0.1-0.1-0.3-0.2-0.4-0.2c-0.2,0-0.3,0.1-0.4,0.2c-0.2,0.2-0.2,0.6,0,0.8L-138.9,14.4
	C-138.9,14.3-138.9,14.3-138.9,14.4z"/>
<path class="st10" d="M107,12.9h-4.6V8.5c0-0.3-0.2-0.5-0.5-0.5h-5c-0.3,0-0.5,0.2-0.5,0.5v4.4H92c-0.3,0-0.5,0.2-0.5,0.5v4.9
	c0,0.3,0.2,0.5,0.5,0.5h4.6V23c0,0.3,0.2,0.5,0.5,0.5h5c0.3,0,0.5-0.2,0.5-0.5v-4.4h4.6c0.3,0,0.5-0.2,0.5-0.5v-4.9
	C107.5,13.1,107.3,12.9,107,12.9z M106.6,17.7H102c-0.3,0-0.5,0.2-0.5,0.5v4.4h-4.1v-4.4c0-0.3-0.2-0.5-0.5-0.5h-4.6v-3.9H97
	c0.3,0,0.5-0.2,0.5-0.5V8.9h4.1v4.4c0,0.3,0.2,0.5,0.5,0.5h4.6V17.7z"/>
</svg>
